<svg xmlns="http://www.w3.org/2000/svg" viewBox="0 0 530.05 530.05"><defs><style>.cls-1{fill:#fff}</style></defs><title>circle</title><circle cx="265.02" cy="265.02" r="265.02" id="Layer_1" data-name="Layer 1"/><g id="Footer"><path class="cls-1" d="M114.45 369.66h-3.28v8.26h-4.71v-20.51h4.71v8.29h3.4l5.39-8.29h5l-6.71 9.9 6.92 10.61h-5.39zm15.28 7.45a7.67 7.67 0 0 1-3.09-2.88 8.46 8.46 0 0 1 0-8.38 7.76 7.76 0 0 1 3.09-2.89 9.51 9.51 0 0 1 4.47-1 9.4 9.4 0 0 1 4.45 1 7.87 7.87 0 0 1 3.08 2.89 8.46 8.46 0 0 1 0 8.38 7.77 7.77 0 0 1-3.08 2.88 9.4 9.4 0 0 1-4.45 1 9.51 9.51 0 0 1-4.47-1zm7.35-3.9a5 5 0 0 0 0-6.35 3.8 3.8 0 0 0-2.88-1.19 3.86 3.86 0 0 0-2.9 1.19 5 5 0 0 0 0 6.35 3.82 3.82 0 0 0 2.9 1.19 3.76 3.76 0 0 0 2.88-1.19zm24.27 4.71v-9.44l-4.71 7.91h-1.94l-4.6-7.93v9.46H146v-15.76h4.78l5 9.11 5.36-9.11h4.28v15.76zm23.88 0v-9.44l-4.72 7.91h-1.93l-4.6-7.93v9.46h-4.13v-15.76h4.77l5 9.11 5.36-9.11h4.28l.06 15.76zm24.28-15.76l-7.12 16.72a8.15 8.15 0 0 1-2.68 3.84 6.55 6.55 0 0 1-3.85 1.11 7.8 7.8 0 0 1-2.43-.38 5.3 5.3 0 0 1-2-1.05l1.67-3.25a4 4 0 0 0 1.21.73 3.74 3.74 0 0 0 1.37.26 2.43 2.43 0 0 0 1.52-.45 3.84 3.84 0 0 0 1-1.51l.06-.15-6.82-15.87h4.71l4.43 10.69 4.45-10.69zm2.2 0h4.54v6.15h6.86v-6.15h4.56v15.76h-4.56V372h-6.86v5.89h-4.54zm20.29 0h4.54v9.37l7.68-9.37h4.18v15.76h-4.5v-9.38l-7.64 9.38H232zm27.78 9.78h-2.37v6h-4.57v-15.78h4.57v6.12h2.46l4.28-6.12H269l-5.51 7.55 5.89 8.21H264zm23.32-8.27a6.65 6.65 0 0 1 2 5.25v9h-4.27v-2c-.86 1.47-2.47 2.2-4.81 2.2a7.47 7.47 0 0 1-3.15-.61 4.64 4.64 0 0 1-2-1.7 4.43 4.43 0 0 1-.71-2.46 4.09 4.09 0 0 1 1.66-3.46 8.41 8.41 0 0 1 5.11-1.26h3.63a2.9 2.9 0 0 0-.91-2.3 4 4 0 0 0-2.72-.81 8.09 8.09 0 0 0-2.48.4 6.47 6.47 0 0 0-2.06 1.07l-1.64-3.19a9.77 9.77 0 0 1 3.09-1.41 13.93 13.93 0 0 1 3.7-.5 8.17 8.17 0 0 1 5.56 1.78zm-3.9 10.86a2.92 2.92 0 0 0 1.29-1.59v-1.61h-3.13c-1.88 0-2.81.61-2.81 1.84a1.62 1.62 0 0 0 .68 1.39 3.12 3.12 0 0 0 1.89.52 3.89 3.89 0 0 0 2.08-.55zm27.6-.36v7.2h-4.25v-3.45h-13.5v-15.76h4.54v12h6.35v-12h4.57v12zm2.87-12.01h4.54v9.37l7.67-9.37h4.19v15.76h-4.54v-9.38l-7.64 9.38h-4.22zm23.71 14.95a7.67 7.67 0 0 1-3.09-2.88 8.46 8.46 0 0 1 0-8.38 7.76 7.76 0 0 1 3.09-2.89 9.51 9.51 0 0 1 4.47-1 9.4 9.4 0 0 1 4.45 1 7.8 7.8 0 0 1 3.08 2.89 8.46 8.46 0 0 1 0 8.38 7.71 7.71 0 0 1-3.08 2.88 9.4 9.4 0 0 1-4.45 1 9.51 9.51 0 0 1-4.47-1zm7.36-3.9a5.06 5.06 0 0 0 0-6.35 4.12 4.12 0 0 0-5.79 0 5 5 0 0 0 0 6.35 4.12 4.12 0 0 0 5.79 0zm8.89-11.05h4.54v6.15H361v-6.15h4.57v15.76H361V372h-6.85v5.89h-4.54zm20.37 0h4.54v6.15h6.85v-6.15h4.57v15.76h-4.57V372h-6.89v5.89H370zm23.2 14.95a7.67 7.67 0 0 1-3.09-2.88 8.46 8.46 0 0 1 0-8.38 7.76 7.76 0 0 1 3.09-2.85 9.51 9.51 0 0 1 4.47-1 9.4 9.4 0 0 1 4.45 1 7.87 7.87 0 0 1 3.08 2.89 8.46 8.46 0 0 1 0 8.38 7.77 7.77 0 0 1-3.08 2.88 9.4 9.4 0 0 1-4.45 1 9.51 9.51 0 0 1-4.47-1.04zm7.35-3.9a5 5 0 0 0 0-6.35 3.8 3.8 0 0 0-2.88-1.19 3.86 3.86 0 0 0-2.9 1.19 5 5 0 0 0 0 6.35 3.82 3.82 0 0 0 2.9 1.19 3.76 3.76 0 0 0 2.88-1.19zm24.13-1.88h-11.92a3.71 3.71 0 0 0 1.52 2.31 5 5 0 0 0 3 .85 5.93 5.93 0 0 0 2.18-.37 5.38 5.38 0 0 0 1.77-1.15l2.43 2.63q-2.22 2.55-6.5 2.55a10.35 10.35 0 0 1-4.72-1 7.61 7.61 0 0 1-3.16-2.88 8 8 0 0 1-1.11-4.19 8.07 8.07 0 0 1 1.09-4.18 7.8 7.8 0 0 1 3-2.9 8.9 8.9 0 0 1 4.29-1 8.71 8.71 0 0 1 4.19 1 7.29 7.29 0 0 1 2.95 2.85 8.58 8.58 0 0 1 1.06 4.33s-.01.38-.07 1.15zM414 366.26a3.69 3.69 0 0 0-1.28 2.4h7.76a3.82 3.82 0 0 0-1.29-2.39 3.87 3.87 0 0 0-2.58-.89 3.94 3.94 0 0 0-2.61.88zm-205.83 28.87a6.69 6.69 0 0 1 2 5.26v9h-4.28v-2c-.86 1.46-2.46 2.2-4.8 2.2a7.47 7.47 0 0 1-3.15-.62 4.73 4.73 0 0 1-2-1.7 4.4 4.4 0 0 1-.7-2.46 4.12 4.12 0 0 1 1.65-3.46 8.45 8.45 0 0 1 5.11-1.26h3.64a2.91 2.91 0 0 0-.91-2.3 4 4 0 0 0-2.73-.8 8.07 8.07 0 0 0-2.47.39 6.74 6.74 0 0 0-2.07 1.07l-1.64-3.19a10.18 10.18 0 0 1 3.1-1.41 13.87 13.87 0 0 1 3.7-.49 8.23 8.23 0 0 1 5.55 1.77zm-3.9 10.87a3 3 0 0 0 1.29-1.6v-1.61h-3.14c-1.87 0-2.81.62-2.81 1.84a1.65 1.65 0 0 0 .69 1.4 3.12 3.12 0 0 0 1.89.51 4 4 0 0 0 2.08-.54zm22.47-8.63h-8.09v12h-4.54v-15.75h12.63zm17.02 5.42h-11.92a3.66 3.66 0 0 0 1.52 2.31 5 5 0 0 0 3 .85 6.15 6.15 0 0 0 2.18-.36 5.42 5.42 0 0 0 1.77-1.16l2.43 2.64q-2.22 2.55-6.5 2.55a10.35 10.35 0 0 1-4.72-1 7.7 7.7 0 0 1-3.16-2.89 8 8 0 0 1-1.11-4.19 8.06 8.06 0 0 1 1.09-4.17 7.73 7.73 0 0 1 3-2.9 9.36 9.36 0 0 1 8.48-.05 7.38 7.38 0 0 1 2.95 2.86 8.54 8.54 0 0 1 1.06 4.32c.01.02-.01.4-.07 1.19zm-10.7-5.07a3.74 3.74 0 0 0-1.28 2.4h7.76a3.77 3.77 0 0 0-3.87-3.28 4 4 0 0 0-2.61.88zm14.3-4.1h4.54v6.15h6.86v-6.15h4.57v15.76h-4.57v-5.89h-6.86v5.89h-4.54zm23.3 14.96a8.11 8.11 0 0 1-3.13-11.27 7.78 7.78 0 0 1 3.13-2.88 9.63 9.63 0 0 1 4.53-1 8.7 8.7 0 0 1 4.35 1 6.16 6.16 0 0 1 2.71 3l-3.54 1.9a3.9 3.9 0 0 0-3.55-2.16 4 4 0 0 0-3 1.17 4.93 4.93 0 0 0 0 6.38 4 4 0 0 0 3 1.18 3.86 3.86 0 0 0 3.55-2.17l3.54 1.93a6.3 6.3 0 0 1-2.71 2.93 8.7 8.7 0 0 1-4.35 1.06 9.75 9.75 0 0 1-4.53-1.07zm27.55-11.21h-5.33v12h-4.54v-12H283v-3.75h15.2zm17.26 7.53a3.87 3.87 0 0 1-1.61 3.31 8.18 8.18 0 0 1-4.81 1.17h-8.4v-15.76h8.05a8.57 8.57 0 0 1 4.63 1.07 3.37 3.37 0 0 1 1.67 3 3.64 3.64 0 0 1-.6 2.07 4 4 0 0 1-1.71 1.39 3.67 3.67 0 0 1 2.78 3.75zm-10.64-4.81h3.46c1.6 0 2.4-.56 2.4-1.69s-.8-1.67-2.4-1.67h-3.46zm6.36 4.46a1.55 1.55 0 0 0-.58-1.34 3.24 3.24 0 0 0-1.85-.42h-3.93v3.49h3.84c1.68 0 2.52-.58 2.52-1.73zm10.59 4.03a7.76 7.76 0 0 1-3.09-2.89 8.46 8.46 0 0 1 0-8.38 7.67 7.67 0 0 1 3.09-2.88 9.39 9.39 0 0 1 4.47-1 9.28 9.28 0 0 1 4.45 1 7.71 7.71 0 0 1 3.08 2.88 8.46 8.46 0 0 1 0 8.38 7.8 7.8 0 0 1-3.08 2.89 9.4 9.4 0 0 1-4.45 1 9.51 9.51 0 0 1-4.47-1zm7.35-3.9a5 5 0 0 0 0-6.36 3.79 3.79 0 0 0-2.88-1.18 3.85 3.85 0 0 0-2.9 1.18 5 5 0 0 0 0 6.36 3.86 3.86 0 0 0 2.9 1.19 3.8 3.8 0 0 0 2.88-1.19zM79.86 283.31c4.35 0 8 .52 10.92 3.06a12.07 12.07 0 0 1 4 9.29c0 6.11-3.83 12.15-13.71 12.15h-4.26v18.84H72v-43.34zm-3 19.95h4c5.72 0 9.16-2.86 9.16-7.86 0-6.89-6.43-7.54-9.55-7.54h-3.66zm25.93-17.09a3.32 3.32 0 1 1-3.31 3.31 3.33 3.33 0 0 1 3.31-3.31zm2.34 13.52v27h-4.67v-27zm8.87 0h4.68v3.11a9.52 9.52 0 0 1 7.73-3.76 9.15 9.15 0 0 1 7.73 3.7c1.37 2 1.56 4.22 1.56 7.21v16.7H131v-16.57a8 8 0 0 0-1.23-4.94 5.29 5.29 0 0 0-4.42-1.94 5.89 5.89 0 0 0-4.74 2.07c-1.82 2.15-1.95 5.33-1.95 7.28v14.1H114zm35.18-20.41v30.41l9.88-10h6.11l-11.57 11.56 13.65 15.4h-6.11l-10.79-12.28-1.17 1.17v11.11h-4.68v-47.37zm50.62 12.61a10.46 10.46 0 0 0-2.54-3.25 7.77 7.77 0 0 0-4.87-1.49c-4.29 0-7.28 2.66-7.28 6.69a4.56 4.56 0 0 0 1.63 3.77 14.26 14.26 0 0 0 4.54 2.73l4.16 1.82a20.93 20.93 0 0 1 6.7 4.09 10.45 10.45 0 0 1 3.11 7.86c0 8-5.91 13.32-13.71 13.32a12.91 12.91 0 0 1-9.42-3.51 15.81 15.81 0 0 1-4-7.66l4.68-1.3a10.3 10.3 0 0 0 2.6 5.52 8.31 8.31 0 0 0 6.24 2.4c5.91 0 8.71-4.22 8.71-8.57a6.47 6.47 0 0 0-2.15-5.07 18.77 18.77 0 0 0-5.2-3l-3.89-1.82a19.16 19.16 0 0 1-5.79-3.57 9 9 0 0 1-3-7.09c0-6.69 5.13-11.17 12.15-11.17a11.76 11.76 0 0 1 7 1.95 13.2 13.2 0 0 1 4.22 4.8zm14.42 7.8l8 18.32 8.45-20.4L239 318l8.06-18.32h5.19l-13.38 28.85-8.32-20.15-8.32 20.15L209 299.69zm66.92 20.07a16.08 16.08 0 0 1-3.32 4.36 13.06 13.06 0 0 1-9 3.31c-6.5 0-13.32-4.09-13.32-14.1 0-8.06 4.94-14.29 13.06-14.29A12.08 12.08 0 0 1 278.8 304c1.69 2.41 2.66 6.57 2.54 10.14h-21c.06 5.59 3.9 9.16 8.57 9.16a8.21 8.21 0 0 0 5.53-1.95 10.71 10.71 0 0 0 2.79-3.7zm-4.61-9.55c-.78-4.22-4-7-7.93-7a8.19 8.19 0 0 0-7.93 7zm32.61-10.52h4.68v27h-4.68v-3.77a11.36 11.36 0 0 1-9.23 4.55c-6.82 0-13.12-4.81-13.12-14.29 0-9.3 6.23-14.1 13.12-14.1a11.18 11.18 0 0 1 9.23 4.48zm-17.54 13.45c0 5.78 3.24 10.13 8.83 10.13s9-4.74 9-10.07c0-6.95-4.81-10-9-10-4.61 0-8.83 3.37-8.83 9.94zm35.86-9.14v22.68h-4.68V304h-2.86v-4.28h2.86v-9.75h4.68v9.75h4.68V304zm33.01 15.76a16.08 16.08 0 0 1-3.32 4.36 13.07 13.07 0 0 1-9 3.31c-6.5 0-13.32-4.09-13.32-14.1 0-8.06 4.93-14.29 13.06-14.29a12.09 12.09 0 0 1 10.2 4.93c1.69 2.41 2.66 6.57 2.53 10.14h-21c.07 5.59 3.9 9.16 8.58 9.16a8.23 8.23 0 0 0 5.53-1.95 10.84 10.84 0 0 0 2.79-3.7zm-4.62-9.55c-.78-4.22-4-7-7.92-7a8.18 8.18 0 0 0-7.93 7zm11.95-10.52h4.68v2.92a7.52 7.52 0 0 1 6.11-3.57 10 10 0 0 1 4.16 1.1l-2.21 4.22a4.84 4.84 0 0 0-2.73-.9 4.54 4.54 0 0 0-3.77 1.68c-.78 1-1.56 2.86-1.56 7.28v14.23h-4.68zm43.41-16.38c4.35 0 8 .52 10.91 3.06a12 12 0 0 1 4 9.29c0 6.11-3.83 12.15-13.71 12.15h-4.22v18.84h-4.81v-43.34zm-3.06 19.95h4c5.71 0 9.16-2.86 9.16-7.86 0-6.89-6.44-7.54-9.56-7.54h-3.57zm31.77-19.95c2.93 0 7.28.2 10.53 2.41a11.31 11.31 0 0 1 4.74 9.61c0 6.63-4.35 11.5-10.92 12l13.78 19.36h-5.85l-13.19-19h-1.23v19H433v-43.38zm-2.14 20.08h3.05c6 0 9.55-2.86 9.55-7.93a6.74 6.74 0 0 0-3.44-6.37 12.42 12.42 0 0 0-6.24-1.23h-2.92zM243.5 242.05a29.64 29.64 0 0 1-29.61-29.61h13.72a15.89 15.89 0 1 0 31.78 0c0-5-2.85-10.89-6.36-13.18-2.4-1.56-6-2-9.89-2.41l-.8-.09c-10-1.15-24.64-4.08-36.21-16.22a51.63 51.63 0 1 1 89-35.62h-13.71a37.92 37.92 0 1 0-65.37 26.16c6.56 6.88 15.15 10.6 27.85 12l.78.09c5 .57 10.73 1.22 15.85 4.56 7.4 4.84 12.57 15 12.57 24.66a29.64 29.64 0 0 1-29.6 29.66zm0 8.31h94.68v13.71H243.5z"/><path class="cls-1" d="M243.5 264.07a51.69 51.69 0 0 1-51.63-51.63h13.71a38 38 0 0 0 37.92 37.92zm26.55-22.02l6.12-10.35a37.91 37.91 0 0 0 5.25-19.26c0-19.67-15-35.6-35.57-37.88-.86-.1-1.73-.18-2.66-.26a53.09 53.09 0 0 1-8.9-1.32c-11.63-3-20.4-15.09-20.4-28.06a29.61 29.61 0 1 1 59.21 0h-13.71a15.89 15.89 0 1 0-31.78 0c0 5.84 3.87 13.15 10.13 14.79a42.87 42.87 0 0 0 6.68.93c1 .09 1.94.18 2.94.29a55 55 0 0 1 33.72 16.42 50.55 50.55 0 0 1 14.05 35.09 51.77 51.77 0 0 1-2.5 15.9h45.55v13.72z"/></g></svg>