<svg xmlns="http://www.w3.org/2000/svg" viewBox="0 0 532.98 532.98"><defs><style>.cls-1,.cls-2{fill:#fff}.cls-2{font-size:36.25px;font-family:FuturaBookC}.cls-3{letter-spacing:-.12em}</style></defs><title>Asset 13</title><g id="Layer_2" data-name="Layer 2"><g id="Layer_1-2" data-name="Layer 1"><circle cx="266.49" cy="266.49" r="266.49"/><path class="cls-1" d="M168.41 309.4a8.93 8.93 0 0 1 3.93 3.28 9.84 9.84 0 0 1 0 10.05 8.8 8.8 0 0 1-3.93 3.28 14.71 14.71 0 0 1-6 1.14h-5.25v7.2h-6v-26.11h11.3a14.54 14.54 0 0 1 5.95 1.16zm-2.22 11.65a4.1 4.1 0 0 0 1.42-3.34 4.15 4.15 0 0 0-1.42-3.37 6.33 6.33 0 0 0-4.14-1.18h-4.92v9.07h4.92a6.38 6.38 0 0 0 4.14-1.18zm28.45 13.3l-5-7.28h-5.56v7.28h-6v-26.11h11.3a14.5 14.5 0 0 1 6 1.16 8.9 8.9 0 0 1 3.94 3.28 9 9 0 0 1 1.38 5 8.5 8.5 0 0 1-5.37 8.24l5.85 8.4zm-1.53-20a6.29 6.29 0 0 0-4.14-1.18h-4.92v9.1H189a6.23 6.23 0 0 0 4.14-1.19 4.7 4.7 0 0 0 0-6.73zm-42.32 39.99h5.78v11.93l9.77-11.93h5.33v20.06h-5.78v-11.93l-9.73 11.93h-5.37zm56.61 20.06v-12l-6 10.07h-2.46l-5.85-10.1v12h-5.26v-20.03h6.08l6.41 11.6 6.83-11.6h5.44l.08 20.06zm30.2-8.4h-15.17a4.73 4.73 0 0 0 1.94 2.95 6.39 6.39 0 0 0 3.8 1.08 7.75 7.75 0 0 0 2.78-.47 6.62 6.62 0 0 0 2.25-1.47l3.1 3.36q-2.84 3.24-8.28 3.24a13.12 13.12 0 0 1-6-1.32 9.72 9.72 0 0 1-4-3.68 10 10 0 0 1-1.42-5.33 10.27 10.27 0 0 1 1.4-5.31 9.83 9.83 0 0 1 3.84-3.7 11.31 11.31 0 0 1 5.46-1.32 11.14 11.14 0 0 1 5.34 1.27 9.29 9.29 0 0 1 3.75 3.63 10.94 10.94 0 0 1 1.36 5.5c-.03.09-.07.57-.15 1.57zm-13.6-6.44a4.76 4.76 0 0 0-1.64 3.06h9.88a4.75 4.75 0 0 0-1.64-3 4.89 4.89 0 0 0-3.28-1.14 5 5 0 0 0-3.32 1.08zm35.1-4.23a9.19 9.19 0 0 1 3.6 3.61 11.91 11.91 0 0 1 0 10.86 9.19 9.19 0 0 1-3.6 3.61 10.16 10.16 0 0 1-5.1 1.29 7.77 7.77 0 0 1-6-2.42v9.36h-5.82v-27.3h5.56v2.31A7.71 7.71 0 0 1 254 354a10.16 10.16 0 0 1 5.1 1.33zm-2.42 13.09a6.42 6.42 0 0 0 0-8.1 5.23 5.23 0 0 0-7.35 0 6.45 6.45 0 0 0 0 8.1 5.23 5.23 0 0 0 7.35 0zm15.1 4.96a9.83 9.83 0 0 1-3.93-3.68 10.71 10.71 0 0 1 0-10.66 9.83 9.83 0 0 1 3.93-3.68 12.88 12.88 0 0 1 11.36 0 9.91 9.91 0 0 1 3.91 3.68 10.71 10.71 0 0 1 0 10.66 9.91 9.91 0 0 1-3.91 3.68 12.88 12.88 0 0 1-11.36 0zm9.36-5a6.42 6.42 0 0 0 0-8.1 4.85 4.85 0 0 0-3.67-1.51 4.93 4.93 0 0 0-3.69 1.51 6.35 6.35 0 0 0 0 8.1 4.93 4.93 0 0 0 3.69 1.51 4.85 4.85 0 0 0 3.67-1.47zm31.27-14.04v20.06h-5.81v-15.29h-8.36v15.29h-5.78v-20.06zm22.51.99a9.19 9.19 0 0 1 3.6 3.61 12 12 0 0 1 0 10.86 9.19 9.19 0 0 1-3.6 3.61 10.22 10.22 0 0 1-5.09 1.29 7.75 7.75 0 0 1-6-2.42v9.36H318v-27.3h5.56v2.31a7.71 7.71 0 0 1 6.3-2.61 10.22 10.22 0 0 1 5.06 1.29zm-2.42 13.09a6.45 6.45 0 0 0 0-8.1 5.23 5.23 0 0 0-7.35 0 6.42 6.42 0 0 0 0 8.1 5.23 5.23 0 0 0 7.35 0zm11.39-14.08h5.78v11.93l9.77-11.93h5.33v20.06H359v-11.93l-9.73 11.93h-5.37zm44.3 0v20.06H383v-5.74h-4.29l-3.8 5.74h-6.19l4.58-6.56a6.86 6.86 0 0 1-3.18-2.37 6.26 6.26 0 0 1-1.11-3.75 6.44 6.44 0 0 1 2.56-5.46 11.46 11.46 0 0 1 7-1.92zm-12.28 5.41a2.43 2.43 0 0 0-1 2.16 2.56 2.56 0 0 0 .92 2.18 4.59 4.59 0 0 0 2.78.69H383v-5.71h-4.29a4.83 4.83 0 0 0-2.8.68zm34.73-.64h-6.78v15.29h-5.78v-15.29h-6.79v-4.77h19.35zm3.1-4.77h5.78v11.93l9.77-11.93h5.33v20.06h-5.78v-11.93l-9.73 11.93h-5.37zm44.26 0v20.06h-5.18v-5.74h-4.29l-3.8 5.74h-6.19l4.58-6.56a6.94 6.94 0 0 1-3.19-2.37 6.32 6.32 0 0 1-1.1-3.75 6.44 6.44 0 0 1 2.56-5.46 11.46 11.46 0 0 1 7-1.92zm-12.29 5.41a2.45 2.45 0 0 0-.95 2.16 2.56 2.56 0 0 0 .92 2.18 4.59 4.59 0 0 0 2.78.69h4.36v-5.71h-4.29a4.89 4.89 0 0 0-2.78.68z"/><text class="cls-2" transform="translate(216.16 421.18)">Pink<tspan class="cls-3" x="56.41" y="0"> </tspan><tspan x="60.5" y="0">Sweater</tspan></text></g><g id="Footer"><path class="cls-1" d="M277.22 293A40.3 40.3 0 0 1 237 252.77h18.6a21.62 21.62 0 0 0 43.23 0c0-6.77-3.88-14.81-8.65-17.92-3.26-2.13-8.21-2.69-13.45-3.29l-1.09-.12c-13.6-1.56-33.5-5.55-49.24-22.05a70.21 70.21 0 1 1 121-48.45h-18.62a51.57 51.57 0 1 0-88.89 35.58c8.92 9.36 20.6 14.41 37.88 16.39l1.06.12c6.83.78 14.59 1.66 21.55 6.21 10.07 6.57 17.1 20.36 17.1 33.53A40.3 40.3 0 0 1 277.22 293zm0 11.33h128.75v18.65H277.22z"/><path class="cls-1" d="M277.22 323A70.3 70.3 0 0 1 207 252.77h18.65a51.62 51.62 0 0 0 51.57 51.56zm36.11-30l8.31-14a51.5 51.5 0 0 0 7.14-26.19c0-26.76-20.34-48.42-48.36-51.52-1.17-.13-2.36-.24-3.62-.35a73.18 73.18 0 0 1-12.11-1.8C248.88 195 237 178.58 237 160.94a40.26 40.26 0 1 1 80.52 0h-18.69a21.62 21.62 0 0 0-43.23 0c0 7.95 5.27 17.9 13.79 20.11a57.75 57.75 0 0 0 9.07 1.28c1.3.11 2.64.23 4 .38a74.78 74.78 0 0 1 45.85 22.34 68.74 68.74 0 0 1 19.11 47.72 70.4 70.4 0 0 1-3.4 21.61H406V293z"/></g></g></svg>