<svg id="Layer_1" xmlns="http://www.w3.org/2000/svg" viewBox="0 0 1945.3 325.3"><style>.st0{fill:#fff}</style><title>лого</title><path class="st0" d="M446 143.6c17.5 0 32.1 2.1 43.8 12.3 12.8 11 15.9 26.4 15.9 37.3 0 24.5-15.4 48.8-55.1 48.8h-17v75.7h-19.3V143.6H446zm-12.3 80.1h15.9c23 0 36.8-11.5 36.8-31.6 0-27.7-25.8-30.3-38.4-30.3h-14.4v61.9h.1zm104.4-68.6c7.4 0 13.3 5.9 13.4 13.3 0 7.4-5.9 13.3-13.3 13.4-7.4 0-13.3-5.9-13.4-13.3 0-7.4 6-13.4 13.3-13.4zm9.4 54.3v108.3h-18.8V209.4h18.8zm35.5 0h18.8v12.5c7.3-9.7 18.9-15.3 31-15.1 12.8 0 24.5 5.2 31.1 14.9 5.5 8.1 6.3 17 6.3 29v67.1h-18.8v-66.6c0-6.5-.5-14.1-5-19.9-3.7-4.7-9.4-7.8-17.8-7.8-6.5 0-13.6 1.8-19.1 8.4-7.3 8.6-7.8 21.4-7.8 29.2v56.6h-18.8l.1-108.3zm141.4-82v122.2l39.7-40.2h24.5l-46.4 46.4 54.8 61.9h-24.5l-43.3-49.3-4.7 4.7v44.6h-18.8V127.4h18.7zm203.4 50.7c-2.5-5-6-9.4-10.2-13-3.4-2.6-9.7-6-19.6-6-17.2 0-29.2 10.7-29.2 26.9 0 6.8 1.8 10.7 6.5 15.1 5.2 5.2 11.8 8.1 18.3 11l16.7 7.3c10.2 4.4 19.6 9.1 26.9 16.5 8.9 8.9 12.5 19 12.5 31.6 0 32.1-23.8 53.5-55.1 53.5-11.5-.1-25.9-2.4-37.9-14.1-8.6-8.4-13.8-20.4-16.2-30.8l18.8-5.2c1.1 8.3 4.8 16 10.4 22.1 7.6 7.6 16.2 9.7 25.1 9.7 23.8 0 35-17 35-34.5 0-7.8-2.3-14.6-8.6-20.4-5-4.7-11.8-7.8-20.9-12l-15.7-7.3c-6.8-3.1-15.4-6.8-23.2-14.4-7.6-7.3-12-15.4-12-28.5 0-26.9 20.6-44.9 48.8-44.9 10.7 0 19.3 2.1 27.9 7.8 7.2 4.9 13 11.6 17 19.3l-15.3 10.3zm57.9 31.3l32.1 73.6 33.9-82 33.7 82 32.4-73.6h20.9l-53.8 115.9-33.4-80.9-33.4 80.9-53.3-115.9h20.9zm268.8 80.6c-3.4 6.5-7.9 12.5-13.3 17.5-9.9 8.9-22.2 13.3-36 13.3-26.1 0-53.5-16.5-53.5-56.6 0-32.4 19.8-57.4 52.5-57.4 21.2 0 34.5 10.4 41 19.8 6.8 9.7 10.7 26.4 10.2 40.7H1171c.3 22.5 15.7 36.8 34.5 36.8 8.1.2 16-2.6 22.2-7.8 4.8-4.1 8.6-9.2 11.2-14.9l15.6 8.6zm-18.5-38.3c-3.1-17-15.9-28.2-31.8-28.2s-29 12-31.8 28.2h63.6zm131-42.3h18.8v108.3H1367v-15.1c-6.3 8.1-18 18.3-37.1 18.3-27.4 0-52.7-19.3-52.7-57.4 0-37.3 25.1-56.6 52.7-56.6 20.9 0 32.1 11.5 37.1 18v-15.5zm-70.5 54c0 23.2 13 40.7 35.5 40.7 23 0 36-19 36-40.5 0-27.9-19.3-40.2-36-40.2-18.5.1-35.5 13.7-35.5 40zm144.1-36.8v91.1h-18.8v-91.1h-11.5v-17.2h11.5v-39.2h18.8v39.2h18.8v17.2h-18.8zm132.6 63.4c-3.4 6.5-7.9 12.5-13.3 17.5-9.9 8.9-22.2 13.3-36 13.3-26.1 0-53.5-16.5-53.5-56.6 0-32.4 19.8-57.4 52.4-57.4 21.1 0 34.5 10.4 41 19.8 6.8 9.7 10.7 26.4 10.2 40.7h-84.3c.3 22.5 15.7 36.8 34.5 36.8 8.1.2 16-2.6 22.2-7.8 4.8-4.1 8.6-9.2 11.2-14.9l15.6 8.6zm-18.5-38.3c-3.1-17-15.9-28.2-31.8-28.2s-29 12-31.8 28.2h63.6zm48-42.3h18.8v11.8c1.8-2.9 9.9-14.4 24.5-14.4 5.8 0 12 2.1 16.7 4.4l-8.9 17c-3.2-2.3-7-3.6-11-3.6-7.6 0-12.3 3.1-15.2 6.8-3.1 4.2-6.3 11.5-6.3 29.2v57.2h-18.8l.2-108.4zm154.3-65.8c17.5 0 32.1 2.1 43.8 12.3 12.8 11 15.9 26.4 15.9 37.3 0 24.5-15.4 48.8-55.1 48.8h-17v75.7h-19.3V143.6h31.7zm-12.2 80.1h15.9c23 0 36.8-11.5 36.8-31.6 0-27.7-25.8-30.3-38.4-30.3h-14.3v61.9zm127.6-80.1c11.8 0 29.2.8 42.3 9.7 10.2 6.8 19.1 20.1 19.1 38.6 0 26.6-17.5 46.2-43.8 48l55.3 77.8h-23.5l-53-76.2h-5v76.2h-19.3V143.6h27.9zm-8.6 80.7h12.3c24 0 38.4-11.5 38.4-31.9 0-9.7-2.9-19.3-13.8-25.6-7.8-4.4-16.7-5-25.1-5h-11.8v62.5zM97.3 280.2c-30.8 0-55.7-25-55.8-55.8h25.8c.3 16.5 13.9 29.7 30.5 29.4 16.1-.3 29.1-13.3 29.4-29.4 0-9.4-5.4-20.5-12-24.8-4.5-3-11.4-3.7-18.6-4.5l-1.5-.2c-18.8-2.2-46.4-7.7-68.2-30.5C-10.2 125.5-8.7 64 30.2 26.9s100.4-35.6 137.5 3.3c17.2 18.1 26.8 42.1 26.8 67.1h-25.8c0-39.4-32-71.4-71.4-71.4s-71.4 32-71.4 71.4c0 18.4 7.1 36 19.7 49.3 12.4 13 28.5 20 52.5 22.7l1.5.2c9.5 1.1 20.2 2.3 29.8 8.6 13.9 9.1 23.7 28.2 23.7 46.4-.1 30.7-25 55.6-55.8 55.7zm0 15.6h178.3v25.8H97.3z"/><path class="st0" d="M97.3 321.6C43.6 321.5.1 278 .1 224.4h25.8c0 39.4 32 71.4 71.4 71.4v25.8zm50-41.4l11.5-19.5c6.5-11 9.9-23.5 9.9-36.3 0-37-28.2-67.1-67-71.4-1.6-.2-3.3-.3-5-.5-5.7-.4-11.3-1.2-16.8-2.5-21.9-5.7-38.4-28.4-38.4-52.9 0-30.8 25-55.7 55.8-55.7s55.7 25 55.7 55.7h-25.8c-.3-16.5-13.9-29.7-30.5-29.4C80.6 68 67.6 81 67.3 97.1c0 11 7.3 24.8 19.1 27.9 4.1.9 8.3 1.5 12.6 1.7 1.8.2 3.7.3 5.6.5 24.1 2.5 46.6 13.5 63.5 30.9 17 17.8 26.5 41.5 26.5 66.1 0 10.2-1.6 20.3-4.7 29.9h85.8v25.8l-128.4.3z"/></svg>