<svg xmlns="http://www.w3.org/2000/svg" viewBox="0 0 3275.15 56.8"><defs><style>.cls-1,.cls-3{fill:none}.cls-2{clip-path:url(#clip-path)}.cls-3{stroke:#ff4a57;stroke-miterlimit:10;stroke-width:.5px}</style><clipPath id="clip-path"><path class="cls-1" d="M0 0h3275.15v56.8H0z"/></clipPath></defs><title>вязка_2</title><g class="cls-2" id="Layer_2" data-name="Layer 2"><path class="cls-3" d="M2887.16 20.27L2872.6 5.33a15.08 15.08 0 0 1-4.28-10.53V-19a1.84 1.84 0 0 1 3.16-1.28L2886-5.33a15.08 15.08 0 0 1 4.28 10.53V19a1.84 1.84 0 0 1-3.12 1.27zm8.49 0l14.57-14.95a15.08 15.08 0 0 0 4.28-10.52V-19a1.84 1.84 0 0 0-3.16-1.28l-14.56 14.95a15.08 15.08 0 0 0-4.28 10.53V19a1.84 1.84 0 0 0 3.15 1.27zm-8.49 28.4l-14.56-14.94a15.08 15.08 0 0 1-4.28-10.53V9.41a1.84 1.84 0 0 1 3.16-1.28L2886 23.08a15.08 15.08 0 0 1 4.28 10.53v13.78a1.84 1.84 0 0 1-3.12 1.28zm8.49 0l14.57-14.95a15.08 15.08 0 0 0 4.28-10.53V9.41a1.84 1.84 0 0 0-3.16-1.28l-14.57 14.95a15.08 15.08 0 0 0-4.28 10.53v13.78a1.84 1.84 0 0 0 3.16 1.28zm-8.49 28.4l-14.56-14.94a15.08 15.08 0 0 1-4.28-10.53V37.81a1.84 1.84 0 0 1 3.16-1.28L2886 51.48a15.08 15.08 0 0 1 4.32 10.52v13.79a1.84 1.84 0 0 1-3.16 1.28zm8.49 0l14.57-14.95a15.08 15.08 0 0 0 4.28-10.53V37.81a1.84 1.84 0 0 0-3.16-1.28l-14.57 14.95a15.08 15.08 0 0 0-4.28 10.52v13.79a1.84 1.84 0 0 0 3.16 1.28zm42.85-56.8l-14.57-14.94a15.08 15.08 0 0 1-4.28-10.53V-19a1.84 1.84 0 0 1 3.16-1.28l14.57 14.95a15.08 15.08 0 0 1 4.28 10.53V19a1.84 1.84 0 0 1-3.16 1.27zm8.5 0l14.57-14.95a15.08 15.08 0 0 0 4.28-10.53V-19a1.84 1.84 0 0 0-3.16-1.28l-14.58 14.95a15.08 15.08 0 0 0-4.28 10.53V19a1.84 1.84 0 0 0 3.17 1.27zm-8.5 28.4l-14.57-14.95a15.08 15.08 0 0 1-4.28-10.53V9.41a1.84 1.84 0 0 1 3.16-1.28l14.57 14.95a15.08 15.08 0 0 1 4.28 10.53v13.78a1.84 1.84 0 0 1-3.16 1.28zm8.5 0l14.57-14.95a15.08 15.08 0 0 0 4.28-10.53V9.41a1.84 1.84 0 0 0-3.16-1.28l-14.57 14.95a15.08 15.08 0 0 0-4.28 10.53v13.78a1.84 1.84 0 0 0 3.16 1.28zm-8.5 28.4l-14.57-14.95a15.08 15.08 0 0 1-4.28-10.53V37.81a1.84 1.84 0 0 1 3.16-1.28l14.57 14.95a15.08 15.08 0 0 1 4.28 10.52v13.79a1.84 1.84 0 0 1-3.16 1.28zm8.5 0l14.57-14.95a15.08 15.08 0 0 0 4.28-10.53V37.81a1.84 1.84 0 0 0-3.16-1.28l-14.57 14.95a15.08 15.08 0 0 0-4.29 10.52v13.79a1.84 1.84 0 0 0 3.17 1.28zm42.84-56.8l-14.57-14.94A15.08 15.08 0 0 1 2971-5.2V-19a1.84 1.84 0 0 1 3.16-1.28l14.57 14.95A15.08 15.08 0 0 1 2993 5.2V19a1.84 1.84 0 0 1-3.16 1.27zm8.49 0l14.57-14.94a15.08 15.08 0 0 0 4.28-10.53V-19a1.84 1.84 0 0 0-3.16-1.28l-14.57 14.95a15.08 15.08 0 0 0-4.28 10.53V19a1.84 1.84 0 0 0 3.16 1.27zm-8.49 28.4l-14.57-14.95A15.08 15.08 0 0 1 2971 23.2V9.41a1.84 1.84 0 0 1 3.16-1.28l14.57 14.95A15.08 15.08 0 0 1 2993 33.6v13.79a1.84 1.84 0 0 1-3.16 1.28zm8.49 0l14.57-14.95a15.08 15.08 0 0 0 4.28-10.53V9.41a1.84 1.84 0 0 0-3.18-1.28l-14.57 14.95a15.08 15.08 0 0 0-4.28 10.53v13.78a1.84 1.84 0 0 0 3.18 1.28zm-8.49 28.4l-14.57-14.95A15.08 15.08 0 0 1 2971 51.6V37.81a1.84 1.84 0 0 1 3.16-1.28l14.57 14.95A15.08 15.08 0 0 1 2993 62v13.79a1.84 1.84 0 0 1-3.16 1.28zm8.49 0l14.57-14.95a15.08 15.08 0 0 0 4.28-10.53V37.81a1.84 1.84 0 0 0-3.16-1.28l-14.57 14.95a15.08 15.08 0 0 0-4.28 10.52v13.79a1.84 1.84 0 0 0 3.16 1.28zm42.85-56.8l-14.57-14.94a15.08 15.08 0 0 1-4.28-10.53V-19a1.84 1.84 0 0 1 3.16-1.28l14.57 14.95a15.08 15.08 0 0 1 4.28 10.53V19a1.84 1.84 0 0 1-3.16 1.27zm8.49 0l14.57-14.95a15.08 15.08 0 0 0 4.28-10.53V-19a1.84 1.84 0 0 0-3.16-1.28l-14.57 14.95a15.08 15.08 0 0 0-4.28 10.53V19a1.84 1.84 0 0 0 3.16 1.27zm-8.49 28.4l-14.57-14.95a15.08 15.08 0 0 1-4.28-10.53V9.41a1.84 1.84 0 0 1 3.16-1.28l14.57 14.95a15.08 15.08 0 0 1 4.28 10.53v13.78a1.84 1.84 0 0 1-3.16 1.28zm8.49 0l14.57-14.95a15.08 15.08 0 0 0 4.28-10.53V9.41a1.84 1.84 0 0 0-3.16-1.28l-14.57 14.95a15.08 15.08 0 0 0-4.28 10.53v13.78a1.84 1.84 0 0 0 3.16 1.28zm-8.49 28.4l-14.57-14.95a15.08 15.08 0 0 1-4.28-10.53V37.81a1.84 1.84 0 0 1 3.16-1.28l14.57 14.95a15.08 15.08 0 0 1 4.28 10.52v13.79a1.84 1.84 0 0 1-3.16 1.28zm8.49 0l14.57-14.95a15.08 15.08 0 0 0 4.28-10.53V37.81a1.84 1.84 0 0 0-3.16-1.28l-14.57 14.95a15.08 15.08 0 0 0-4.28 10.52v13.79a1.84 1.84 0 0 0 3.16 1.28zm42.85-56.8L3078 5.33a15.08 15.08 0 0 1-4.28-10.53V-19a1.84 1.84 0 0 1 3.16-1.28l14.57 14.95a15.08 15.08 0 0 1 4.28 10.53V19a1.84 1.84 0 0 1-3.21 1.27zm8.48 0l14.57-14.95a15.08 15.08 0 0 0 4.28-10.53V-19a1.84 1.84 0 0 0-3.16-1.28l-14.56 14.95a15.08 15.08 0 0 0-4.28 10.53V19a1.84 1.84 0 0 0 3.15 1.27zm-8.48 28.4L3078 33.73a15.08 15.08 0 0 1-4.28-10.53V9.41a1.84 1.84 0 0 1 3.16-1.28l14.57 14.95a15.08 15.08 0 0 1 4.28 10.53v13.78a1.84 1.84 0 0 1-3.21 1.28zm8.48 0l14.57-14.95a15.08 15.08 0 0 0 4.28-10.53V9.41a1.84 1.84 0 0 0-3.16-1.28l-14.57 14.95a15.08 15.08 0 0 0-4.28 10.53v13.78a1.84 1.84 0 0 0 3.16 1.28zm-8.48 28.4L3078 62.13a15.08 15.08 0 0 1-4.28-10.53V37.81a1.84 1.84 0 0 1 3.16-1.28l14.57 14.95a15.08 15.08 0 0 1 4.23 10.52v13.79a1.84 1.84 0 0 1-3.16 1.28zm8.48 0l14.57-14.95a15.08 15.08 0 0 0 4.28-10.53V37.81a1.84 1.84 0 0 0-3.16-1.28l-14.57 14.95a15.08 15.08 0 0 0-4.27 10.52v13.79a1.84 1.84 0 0 0 3.15 1.28zm42.86-56.8l-14.57-14.94A15.08 15.08 0 0 1 3125-5.2V-19a1.84 1.84 0 0 1 3.16-1.28l14.57 14.95A15.08 15.08 0 0 1 3147 5.2V19a1.84 1.84 0 0 1-3.14 1.27zm8.48 0l14.57-14.95a15.08 15.08 0 0 0 4.28-10.53V-19a1.84 1.84 0 0 0-3.16-1.28l-14.56 14.95a15.08 15.08 0 0 0-4.28 10.53V19a1.84 1.84 0 0 0 3.15 1.27zm-8.48 28.4l-14.57-14.95A15.08 15.08 0 0 1 3125 23.2V9.41a1.84 1.84 0 0 1 3.16-1.28l14.57 14.95A15.08 15.08 0 0 1 3147 33.6v13.79a1.84 1.84 0 0 1-3.14 1.28zm8.48 0l14.57-14.95a15.08 15.08 0 0 0 4.28-10.53V9.41a1.84 1.84 0 0 0-3.19-1.28l-14.57 14.95a15.08 15.08 0 0 0-4.28 10.53v13.78a1.84 1.84 0 0 0 3.19 1.28zm-8.48 28.4l-14.57-14.95A15.08 15.08 0 0 1 3125 51.6V37.81a1.84 1.84 0 0 1 3.16-1.28l14.57 14.95A15.08 15.08 0 0 1 3147 62v13.79a1.84 1.84 0 0 1-3.14 1.28zm8.48 0l14.57-14.95a15.08 15.08 0 0 0 4.28-10.53V37.81a1.84 1.84 0 0 0-3.16-1.28l-14.57 14.95a15.08 15.08 0 0 0-4.27 10.52v13.79a1.84 1.84 0 0 0 3.15 1.28zm42.86-56.8l-14.57-14.94a15.08 15.08 0 0 1-4.28-10.53V-19a1.84 1.84 0 0 1 3.16-1.28l14.57 14.95a15.08 15.08 0 0 1 4.28 10.53V19a1.84 1.84 0 0 1-3.16 1.27zm8.48 0l14.57-14.95a15.08 15.08 0 0 0 4.28-10.53V-19a1.84 1.84 0 0 0-3.16-1.28l-14.56 14.95a15.08 15.08 0 0 0-4.28 10.53V19a1.84 1.84 0 0 0 3.15 1.27zm-8.48 28.4l-14.57-14.95a15.08 15.08 0 0 1-4.28-10.53V9.41a1.84 1.84 0 0 1 3.16-1.28l14.57 14.95a15.08 15.08 0 0 1 4.28 10.53v13.78a1.84 1.84 0 0 1-3.16 1.28zm8.48 0l14.57-14.95a15.08 15.08 0 0 0 4.28-10.53V9.41a1.84 1.84 0 0 0-3.16-1.28l-14.57 14.95a15.08 15.08 0 0 0-4.28 10.53v13.78a1.84 1.84 0 0 0 3.16 1.28zm-8.48 28.4l-14.57-14.95a15.08 15.08 0 0 1-4.28-10.53V37.81a1.84 1.84 0 0 1 3.16-1.28l14.57 14.95a15.08 15.08 0 0 1 4.27 10.52v13.79a1.84 1.84 0 0 1-3.15 1.28zm8.48 0l14.57-14.95a15.08 15.08 0 0 0 4.28-10.53V37.81a1.84 1.84 0 0 0-3.16-1.28l-14.57 14.95a15.08 15.08 0 0 0-4.27 10.52v13.79a1.84 1.84 0 0 0 3.15 1.28zm42.86-56.8L3232 5.33a15.08 15.08 0 0 1-4.28-10.53V-19a1.84 1.84 0 0 1 3.16-1.28l14.57 14.95a15.08 15.08 0 0 1 4.28 10.53V19a1.84 1.84 0 0 1-3.19 1.27zm8.46 0l14.57-14.95a15.08 15.08 0 0 0 4.28-10.53V-19a1.84 1.84 0 0 0-3.16-1.28l-14.54 14.95a15.08 15.08 0 0 0-4.28 10.53V19a1.84 1.84 0 0 0 3.13 1.27zm-8.46 28.4L3232 33.73a15.08 15.08 0 0 1-4.28-10.53V9.41a1.84 1.84 0 0 1 3.16-1.28l14.57 14.95a15.08 15.08 0 0 1 4.28 10.53v13.78a1.84 1.84 0 0 1-3.19 1.28zm8.46 0l14.57-14.95a15.08 15.08 0 0 0 4.28-10.53V9.41a1.84 1.84 0 0 0-3.16-1.28l-14.57 14.95a15.08 15.08 0 0 0-4.28 10.53v13.78a1.84 1.84 0 0 0 3.16 1.28zm-8.46 28.4L3232 62.13a15.08 15.08 0 0 1-4.28-10.53V37.81a1.84 1.84 0 0 1 3.16-1.28l14.57 14.95a15.08 15.08 0 0 1 4.24 10.52v13.79a1.84 1.84 0 0 1-3.15 1.28zm8.46 0l14.57-14.95a15.08 15.08 0 0 0 4.28-10.53V37.81a1.84 1.84 0 0 0-3.16-1.28l-14.57 14.95a15.08 15.08 0 0 0-4.26 10.52v13.79a1.84 1.84 0 0 0 3.14 1.28zm-727.21-56.8l-14.56-14.94a15.08 15.08 0 0 1-4.28-10.53V-19a1.84 1.84 0 0 1 3.16-1.28l14.57 14.95A15.08 15.08 0 0 1 2531 5.2V19a1.84 1.84 0 0 1-3.21 1.27zm8.49 0l14.57-14.95a15.08 15.08 0 0 0 4.28-10.53V-19a1.84 1.84 0 0 0-3.16-1.28L2537.4-5.33a15.08 15.08 0 0 0-4.28 10.53V19a1.84 1.84 0 0 0 3.16 1.27zm-8.49 28.4l-14.57-14.95a15.08 15.08 0 0 1-4.28-10.53V9.41a1.84 1.84 0 0 1 3.16-1.28l14.57 14.95A15.08 15.08 0 0 1 2531 33.6v13.79a1.84 1.84 0 0 1-3.21 1.28zm8.49 0l14.57-14.95a15.08 15.08 0 0 0 4.28-10.53V9.41a1.84 1.84 0 0 0-3.13-1.28l-14.6 14.95a15.08 15.08 0 0 0-4.28 10.53v13.78a1.84 1.84 0 0 0 3.16 1.28zm-8.49 28.4l-14.57-14.95a15.08 15.08 0 0 1-4.28-10.53V37.81a1.84 1.84 0 0 1 3.16-1.28l14.57 14.95A15.08 15.08 0 0 1 2531 62v13.79a1.84 1.84 0 0 1-3.21 1.28zm8.49 0l14.57-14.95a15.08 15.08 0 0 0 4.28-10.53V37.81a1.84 1.84 0 0 0-3.16-1.28l-14.57 14.95a15.08 15.08 0 0 0-4.28 10.52v13.79a1.84 1.84 0 0 0 3.16 1.28zm42.85-56.8l-14.57-14.94a15.08 15.08 0 0 1-4.28-10.53V-19a1.84 1.84 0 0 1 3.16-1.28L2578-5.33a15.08 15.08 0 0 1 4.28 10.53V19a1.84 1.84 0 0 1-3.15 1.27zm8.49 0l14.57-14.95a15.08 15.08 0 0 0 4.28-10.53V-19a1.84 1.84 0 0 0-3.16-1.28l-14.57 14.95a15.08 15.08 0 0 0-4.28 10.53V19a1.84 1.84 0 0 0 3.16 1.27zm-8.49 28.4l-14.57-14.95a15.08 15.08 0 0 1-4.28-10.53V9.41a1.84 1.84 0 0 1 3.16-1.28L2578 23.08a15.08 15.08 0 0 1 4.28 10.53v13.78a1.84 1.84 0 0 1-3.15 1.28zm8.49 0l14.57-14.95a15.08 15.08 0 0 0 4.28-10.53V9.41a1.84 1.84 0 0 0-3.16-1.28l-14.57 14.95a15.08 15.08 0 0 0-4.28 10.53v13.78a1.84 1.84 0 0 0 3.16 1.28zm-8.49 28.4l-14.57-14.95a15.08 15.08 0 0 1-4.28-10.53V37.81a1.84 1.84 0 0 1 3.16-1.28L2578 51.48a15.08 15.08 0 0 1 4.29 10.52v13.79a1.84 1.84 0 0 1-3.16 1.28zm8.49 0l14.57-14.95a15.08 15.08 0 0 0 4.28-10.53V37.81a1.84 1.84 0 0 0-3.16-1.28l-14.57 14.95a15.08 15.08 0 0 0-4.28 10.52v13.79a1.84 1.84 0 0 0 3.16 1.28zm42.85-56.8L2615.9 5.33a15.08 15.08 0 0 1-4.28-10.53V-19a1.84 1.84 0 0 1 3.16-1.28l14.57 14.95a15.08 15.08 0 0 1 4.28 10.53V19a1.84 1.84 0 0 1-3.16 1.27zm8.53 0l14.57-14.95a15.08 15.08 0 0 0 4.28-10.53V-19a1.84 1.84 0 0 0-3.16-1.28l-14.61 14.95a15.08 15.08 0 0 0-4.28 10.53V19a1.84 1.84 0 0 0 3.2 1.27zm-8.53 28.4l-14.57-14.94a15.08 15.08 0 0 1-4.28-10.53V9.41a1.84 1.84 0 0 1 3.16-1.28l14.57 14.95a15.08 15.08 0 0 1 4.28 10.53v13.78a1.84 1.84 0 0 1-3.16 1.28zm8.53 0l14.57-14.95a15.08 15.08 0 0 0 4.28-10.53V9.41a1.84 1.84 0 0 0-3.16-1.28l-14.57 14.95a15.08 15.08 0 0 0-4.28 10.53v13.78a1.84 1.84 0 0 0 3.16 1.28zm-8.53 28.4l-14.57-14.94a15.08 15.08 0 0 1-4.28-10.53V37.81a1.84 1.84 0 0 1 3.16-1.28l14.57 14.95a15.08 15.08 0 0 1 4.28 10.52v13.79a1.84 1.84 0 0 1-3.16 1.28zm8.53 0l14.57-14.95a15.08 15.08 0 0 0 4.28-10.53V37.81a1.84 1.84 0 0 0-3.16-1.28l-14.57 14.95A15.08 15.08 0 0 0 2635.8 62v13.79a1.84 1.84 0 0 0 3.2 1.28zm42.81-56.8l-14.57-14.94A15.08 15.08 0 0 1 2663-5.2V-19a1.84 1.84 0 0 1 3.16-1.28l14.57 14.95A15.08 15.08 0 0 1 2685 5.2V19a1.84 1.84 0 0 1-3.19 1.27zm8.49 0l14.57-14.95a15.08 15.08 0 0 0 4.28-10.53V-19a1.84 1.84 0 0 0-3.16-1.28l-14.57 14.95a15.08 15.08 0 0 0-4.28 10.53V19a1.84 1.84 0 0 0 3.16 1.27zm-8.49 28.4l-14.57-14.95A15.08 15.08 0 0 1 2663 23.2V9.41a1.84 1.84 0 0 1 3.16-1.28l14.57 14.95A15.08 15.08 0 0 1 2685 33.6v13.79a1.84 1.84 0 0 1-3.19 1.28zm8.49 0l14.57-14.95a15.08 15.08 0 0 0 4.28-10.53V9.41a1.84 1.84 0 0 0-3.15-1.28l-14.57 14.95a15.08 15.08 0 0 0-4.28 10.53v13.78a1.84 1.84 0 0 0 3.15 1.28zm-8.49 28.4l-14.57-14.95A15.08 15.08 0 0 1 2663 51.6V37.81a1.84 1.84 0 0 1 3.16-1.28l14.57 14.95A15.08 15.08 0 0 1 2685 62v13.79a1.84 1.84 0 0 1-3.19 1.28zm8.49 0l14.57-14.95a15.08 15.08 0 0 0 4.28-10.53V37.81a1.84 1.84 0 0 0-3.16-1.28l-14.57 14.95a15.08 15.08 0 0 0-4.28 10.52v13.79a1.84 1.84 0 0 0 3.16 1.28zm42.85-56.8l-14.57-14.94a15.08 15.08 0 0 1-4.28-10.53V-19a1.84 1.84 0 0 1 3.16-1.28L2732-5.33a15.08 15.08 0 0 1 4.3 10.53V19a1.84 1.84 0 0 1-3.15 1.27zm8.48 0l14.57-14.94a15.08 15.08 0 0 0 4.28-10.53V-19a1.84 1.84 0 0 0-3.16-1.28l-14.56 14.95a15.08 15.08 0 0 0-4.28 10.53V19a1.84 1.84 0 0 0 3.15 1.27zm-8.48 28.4l-14.57-14.95a15.08 15.08 0 0 1-4.28-10.53V9.41a1.84 1.84 0 0 1 3.16-1.28L2732 23.08a15.08 15.08 0 0 1 4.28 10.53v13.78a1.84 1.84 0 0 1-3.13 1.28zm8.48 0l14.57-14.95a15.08 15.08 0 0 0 4.28-10.53V9.41a1.84 1.84 0 0 0-3.16-1.28l-14.57 14.95a15.08 15.08 0 0 0-4.28 10.53v13.78a1.84 1.84 0 0 0 3.16 1.28zm-8.48 28.4l-14.57-14.95a15.08 15.08 0 0 1-4.28-10.53V37.81a1.84 1.84 0 0 1 3.16-1.28L2732 51.48a15.08 15.08 0 0 1 4.3 10.52v13.79a1.84 1.84 0 0 1-3.15 1.28zm8.48 0l14.57-14.95a15.08 15.08 0 0 0 4.28-10.53V37.81a1.84 1.84 0 0 0-3.16-1.28l-14.57 14.95a15.08 15.08 0 0 0-4.27 10.52v13.79a1.84 1.84 0 0 0 3.15 1.28zm42.86-56.8l-14.57-14.94a15.08 15.08 0 0 1-4.28-10.53V-19a1.84 1.84 0 0 1 3.16-1.28l14.57 14.95a15.08 15.08 0 0 1 4.28 10.53V19a1.84 1.84 0 0 1-3.16 1.27zm8.51 0l14.57-14.95a15.08 15.08 0 0 0 4.28-10.53V-19a1.84 1.84 0 0 0-3.16-1.28L2794.1-5.33a15.08 15.08 0 0 0-4.28 10.53V19a1.84 1.84 0 0 0 3.18 1.27zm-8.51 28.4l-14.57-14.95a15.08 15.08 0 0 1-4.28-10.53V9.41a1.84 1.84 0 0 1 3.16-1.28l14.57 14.95a15.08 15.08 0 0 1 4.28 10.53v13.78a1.84 1.84 0 0 1-3.16 1.28zm8.51 0l14.57-14.95a15.08 15.08 0 0 0 4.28-10.53V9.41a1.84 1.84 0 0 0-3.16-1.28l-14.59 14.95a15.08 15.08 0 0 0-4.28 10.53v13.78a1.84 1.84 0 0 0 3.18 1.28zm-8.51 28.4l-14.57-14.95a15.08 15.08 0 0 1-4.28-10.53V37.81a1.84 1.84 0 0 1 3.16-1.28l14.57 14.95a15.08 15.08 0 0 1 4.27 10.52v13.79a1.84 1.84 0 0 1-3.15 1.28zm8.51 0l14.57-14.95a15.08 15.08 0 0 0 4.28-10.53V37.81a1.84 1.84 0 0 0-3.16-1.28l-14.59 14.95a15.08 15.08 0 0 0-4.28 10.52v13.79a1.84 1.84 0 0 0 3.18 1.28zm42.83-56.8l-14.57-14.94A15.08 15.08 0 0 1 2817-5.2V-19a1.84 1.84 0 0 1 3.16-1.28l14.54 14.95A15.08 15.08 0 0 1 2839 5.2V19a1.84 1.84 0 0 1-3.17 1.27zm8.48 0l14.57-14.95a15.08 15.08 0 0 0 4.28-10.53V-19a1.84 1.84 0 0 0-3.16-1.28l-14.56 14.95a15.08 15.08 0 0 0-4.28 10.53V19a1.84 1.84 0 0 0 3.15 1.27zm-8.48 28.4l-14.57-14.95A15.08 15.08 0 0 1 2817 23.2V9.41a1.84 1.84 0 0 1 3.16-1.28l14.57 14.95A15.08 15.08 0 0 1 2839 33.6v13.79a1.84 1.84 0 0 1-3.17 1.28zm8.48 0l14.57-14.95a15.08 15.08 0 0 0 4.28-10.53V9.41a1.84 1.84 0 0 0-3.16-1.28l-14.57 14.95a15.08 15.08 0 0 0-4.28 10.53v13.78a1.84 1.84 0 0 0 3.16 1.28zm-8.48 28.4l-14.57-14.95A15.08 15.08 0 0 1 2817 51.6V37.81a1.84 1.84 0 0 1 3.16-1.28l14.57 14.95A15.08 15.08 0 0 1 2839 62v13.79a1.84 1.84 0 0 1-3.17 1.28zm8.48 0l14.57-14.95a15.08 15.08 0 0 0 4.28-10.53V37.81a1.84 1.84 0 0 0-3.16-1.28l-14.57 14.95a15.08 15.08 0 0 0-4.27 10.52v13.79a1.84 1.84 0 0 0 3.15 1.28zm-675.89-56.8l-14.56-14.94a15.08 15.08 0 0 1-4.28-10.53V-19a1.84 1.84 0 0 1 3.16-1.28l14.56 14.95a15.08 15.08 0 0 1 4.28 10.53V19a1.84 1.84 0 0 1-3.16 1.27zm8.49 0l14.57-14.95a15.08 15.08 0 0 0 4.28-10.53V-19a1.84 1.84 0 0 0-3.16-1.28L2178-5.33a15.08 15.08 0 0 0-4.28 10.53V19a1.84 1.84 0 0 0 3.19 1.27zm-8.49 28.4l-14.57-14.95a15.08 15.08 0 0 1-4.28-10.53V9.41a1.84 1.84 0 0 1 3.16-1.28l14.57 14.95a15.08 15.08 0 0 1 4.28 10.53v13.78a1.84 1.84 0 0 1-3.16 1.28zm8.49 0l14.57-14.95a15.08 15.08 0 0 0 4.28-10.53V9.41a1.84 1.84 0 0 0-3.16-1.28L2178 23.08a15.08 15.08 0 0 0-4.28 10.53v13.78a1.84 1.84 0 0 0 3.19 1.28zm-8.49 28.4l-14.57-14.95a15.08 15.08 0 0 1-4.28-10.53V37.81a1.84 1.84 0 0 1 3.16-1.28l14.57 14.95a15.08 15.08 0 0 1 4.28 10.52v13.79a1.84 1.84 0 0 1-3.16 1.28zm8.49 0l14.57-14.95a15.08 15.08 0 0 0 4.28-10.53V37.81a1.84 1.84 0 0 0-3.16-1.28L2178 51.48a15.08 15.08 0 0 0-4.25 10.52v13.79a1.84 1.84 0 0 0 3.16 1.28zm42.85-56.8l-14.57-14.94a15.08 15.08 0 0 1-4.28-10.53V-19a1.84 1.84 0 0 1 3.16-1.28l14.57 14.95a15.08 15.08 0 0 1 4.28 10.53V19a1.84 1.84 0 0 1-3.16 1.27zm8.49 0l14.57-14.95a15.08 15.08 0 0 0 4.28-10.52V-19a1.84 1.84 0 0 0-3.16-1.28l-14.57 14.95a15.08 15.08 0 0 0-4.28 10.53V19a1.84 1.84 0 0 0 3.16 1.27zm-8.49 28.4l-14.57-14.95a15.08 15.08 0 0 1-4.28-10.53V9.41a1.84 1.84 0 0 1 3.16-1.28l14.57 14.95a15.08 15.08 0 0 1 4.28 10.53v13.78a1.84 1.84 0 0 1-3.16 1.28zm8.49 0l14.57-14.95a15.08 15.08 0 0 0 4.28-10.53V9.41a1.84 1.84 0 0 0-3.16-1.28l-14.57 14.95a15.08 15.08 0 0 0-4.28 10.53v13.78a1.84 1.84 0 0 0 3.16 1.28zm-8.49 28.4l-14.57-14.95a15.08 15.08 0 0 1-4.28-10.53V37.81a1.84 1.84 0 0 1 3.16-1.28l14.57 14.95a15.08 15.08 0 0 1 4.28 10.52v13.79a1.84 1.84 0 0 1-3.16 1.28zm8.49 0l14.57-14.95a15.08 15.08 0 0 0 4.28-10.53V37.81a1.84 1.84 0 0 0-3.16-1.28l-14.57 14.95a15.08 15.08 0 0 0-4.28 10.52v13.79a1.84 1.84 0 0 0 3.16 1.28zm42.85-56.8l-14.57-14.94a15.08 15.08 0 0 1-4.28-10.53V-19a1.84 1.84 0 0 1 3.16-1.28L2270-5.33a15.08 15.08 0 0 1 4.28 10.53V19a1.84 1.84 0 0 1-3.18 1.27zm8.49 0l14.57-14.95a15.08 15.08 0 0 0 4.28-10.53V-19a1.84 1.84 0 0 0-3.16-1.28l-14.57 14.95a15.08 15.08 0 0 0-4.28 10.53V19a1.84 1.84 0 0 0 3.16 1.27zm-8.49 28.4l-14.57-14.95a15.08 15.08 0 0 1-4.28-10.53V9.41a1.84 1.84 0 0 1 3.16-1.28L2270 23.08a15.08 15.08 0 0 1 4.28 10.53v13.78a1.84 1.84 0 0 1-3.18 1.28zm8.49 0l14.57-14.95a15.08 15.08 0 0 0 4.28-10.53V9.41a1.84 1.84 0 0 0-3.16-1.28l-14.57 14.95a15.08 15.08 0 0 0-4.28 10.53v13.78a1.84 1.84 0 0 0 3.16 1.28zm-8.49 28.4l-14.57-14.95a15.08 15.08 0 0 1-4.28-10.53V37.81a1.84 1.84 0 0 1 3.16-1.28L2270 51.48a15.08 15.08 0 0 1 4.26 10.52v13.79a1.84 1.84 0 0 1-3.16 1.28zm8.49 0l14.57-14.95a15.08 15.08 0 0 0 4.28-10.53V37.81a1.84 1.84 0 0 0-3.16-1.28l-14.57 14.95a15.08 15.08 0 0 0-4.28 10.52v13.79a1.84 1.84 0 0 0 3.16 1.28zm42.85-56.8l-14.57-14.94a15.08 15.08 0 0 1-4.28-10.53V-19a1.84 1.84 0 0 1 3.16-1.28l14.57 14.95a15.08 15.08 0 0 1 4.28 10.53V19a1.84 1.84 0 0 1-3.16 1.27zm8.48 0l14.57-14.95a15.08 15.08 0 0 0 4.28-10.53V-19a1.84 1.84 0 0 0-3.16-1.28l-14.56 14.95a15.08 15.08 0 0 0-4.28 10.53V19a1.84 1.84 0 0 0 3.15 1.27zm-8.48 28.4l-14.57-14.95a15.08 15.08 0 0 1-4.28-10.53V9.41a1.84 1.84 0 0 1 3.16-1.28l14.57 14.95a15.08 15.08 0 0 1 4.28 10.53v13.78a1.84 1.84 0 0 1-3.16 1.28zm8.48 0l14.57-14.95a15.08 15.08 0 0 0 4.28-10.53V9.41a1.84 1.84 0 0 0-3.16-1.28l-14.57 14.95a15.08 15.08 0 0 0-4.28 10.53v13.78a1.84 1.84 0 0 0 3.16 1.28zm-8.48 28.4l-14.57-14.95a15.08 15.08 0 0 1-4.28-10.53V37.81a1.84 1.84 0 0 1 3.16-1.28l14.57 14.95A15.08 15.08 0 0 1 2325.6 62v13.79a1.84 1.84 0 0 1-3.16 1.28zm8.48 0l14.57-14.95a15.08 15.08 0 0 0 4.28-10.53V37.81a1.84 1.84 0 0 0-3.16-1.28l-14.57 14.95a15.08 15.08 0 0 0-4.27 10.52v13.79a1.84 1.84 0 0 0 3.15 1.28zm42.86-56.8l-14.57-14.94a15.08 15.08 0 0 1-4.28-10.53V-19a1.84 1.84 0 0 1 3.16-1.28l14.57 14.95a15.08 15.08 0 0 1 4.28 10.53V19a1.84 1.84 0 0 1-3.16 1.27zm8.48 0l14.57-14.95a15.08 15.08 0 0 0 4.28-10.53V-19a1.84 1.84 0 0 0-3.16-1.28l-14.56 14.95a15.08 15.08 0 0 0-4.28 10.53V19a1.84 1.84 0 0 0 3.15 1.27zm-8.48 28.4l-14.57-14.95a15.08 15.08 0 0 1-4.28-10.53V9.41a1.84 1.84 0 0 1 3.16-1.28l14.57 14.95a15.08 15.08 0 0 1 4.28 10.53v13.78a1.84 1.84 0 0 1-3.16 1.28zm8.48 0l14.57-14.95a15.08 15.08 0 0 0 4.28-10.53V9.41a1.84 1.84 0 0 0-3.11-1.28l-14.57 14.95a15.08 15.08 0 0 0-4.28 10.53v13.78a1.84 1.84 0 0 0 3.11 1.28zm-8.48 28.4l-14.57-14.95a15.08 15.08 0 0 1-4.28-10.53V37.81a1.84 1.84 0 0 1 3.16-1.28l14.57 14.95a15.08 15.08 0 0 1 4.27 10.52v13.79a1.84 1.84 0 0 1-3.15 1.28zm8.48 0l14.57-14.95a15.08 15.08 0 0 0 4.28-10.53V37.81a1.84 1.84 0 0 0-3.16-1.28l-14.57 14.95a15.08 15.08 0 0 0-4.27 10.52v13.79a1.84 1.84 0 0 0 3.15 1.28zm42.86-56.8l-14.57-14.94a15.08 15.08 0 0 1-4.28-10.53V-19a1.84 1.84 0 0 1 3.16-1.28L2424-5.33a15.08 15.08 0 0 1 4.28 10.53V19a1.84 1.84 0 0 1-3.16 1.27zm8.48 0l14.57-14.95a15.08 15.08 0 0 0 4.28-10.53V-19a1.84 1.84 0 0 0-3.16-1.28l-14.56 14.95a15.08 15.08 0 0 0-4.28 10.53V19a1.84 1.84 0 0 0 3.15 1.27zm-8.48 28.4l-14.57-14.95a15.08 15.08 0 0 1-4.28-10.53V9.41a1.84 1.84 0 0 1 3.16-1.28L2424 23.08a15.08 15.08 0 0 1 4.28 10.53v13.78a1.84 1.84 0 0 1-3.16 1.28zm8.48 0l14.57-14.95a15.08 15.08 0 0 0 4.28-10.53V9.41a1.84 1.84 0 0 0-3.16-1.28l-14.57 14.95a15.08 15.08 0 0 0-4.28 10.53v13.78a1.84 1.84 0 0 0 3.16 1.28zm-8.48 28.4l-14.57-14.95a15.08 15.08 0 0 1-4.28-10.53V37.81a1.84 1.84 0 0 1 3.16-1.28L2424 51.48a15.08 15.08 0 0 1 4.27 10.52v13.79a1.84 1.84 0 0 1-3.15 1.28zm8.48 0l14.57-14.95a15.08 15.08 0 0 0 4.28-10.53V37.81a1.84 1.84 0 0 0-3.16-1.28l-14.57 14.95a15.08 15.08 0 0 0-4.27 10.52v13.79a1.84 1.84 0 0 0 3.15 1.28zm42.86-56.8l-14.57-14.94a15.08 15.08 0 0 1-4.28-10.53V-19a1.84 1.84 0 0 1 3.16-1.28l14.57 14.95a15.08 15.08 0 0 1 4.28 10.53V19a1.84 1.84 0 0 1-3.16 1.27zm8.48 0l14.57-14.95a15.08 15.08 0 0 0 4.28-10.53V-19a1.84 1.84 0 0 0-3.16-1.28l-14.56 14.95a15.08 15.08 0 0 0-4.28 10.53V19a1.84 1.84 0 0 0 3.15 1.27zm-8.48 28.4l-14.57-14.95a15.08 15.08 0 0 1-4.28-10.53V9.41a1.84 1.84 0 0 1 3.16-1.28l14.57 14.95a15.08 15.08 0 0 1 4.28 10.53v13.78a1.84 1.84 0 0 1-3.16 1.28zm8.48 0l14.57-14.95a15.08 15.08 0 0 0 4.28-10.53V9.41a1.84 1.84 0 0 0-3.16-1.28l-14.57 14.95a15.08 15.08 0 0 0-4.28 10.53v13.78a1.84 1.84 0 0 0 3.16 1.28zm-8.48 28.4l-14.57-14.95a15.08 15.08 0 0 1-4.28-10.53V37.81a1.84 1.84 0 0 1 3.16-1.28l14.57 14.95a15.08 15.08 0 0 1 4.27 10.52v13.79a1.84 1.84 0 0 1-3.15 1.28zm8.48 0l14.57-14.95a15.08 15.08 0 0 0 4.28-10.53V37.81a1.84 1.84 0 0 0-3.16-1.28l-14.57 14.95a15.08 15.08 0 0 0-4.28 10.52v13.79a1.84 1.84 0 0 0 3.16 1.28zM738.87 20.27L724.3 5.33A15.08 15.08 0 0 1 720-5.2V-19a1.84 1.84 0 0 1 3.16-1.28l14.58 14.95A15.08 15.08 0 0 1 742 5.2V19a1.84 1.84 0 0 1-3.13 1.27zm8.48 0l14.57-14.94A15.08 15.08 0 0 0 766.2-5.2V-19a1.84 1.84 0 0 0-3.2-1.27L748.48-5.33A15.08 15.08 0 0 0 744.2 5.2V19a1.84 1.84 0 0 0 3.15 1.27zm-8.48 28.4L724.3 33.73A15.08 15.08 0 0 1 720 23.2V9.41a1.84 1.84 0 0 1 3.16-1.28l14.57 14.95A15.08 15.08 0 0 1 742 33.6v13.79a1.84 1.84 0 0 1-3.13 1.28zm8.48 0l14.57-14.95a15.08 15.08 0 0 0 4.28-10.52V9.41a1.84 1.84 0 0 0-3.2-1.28l-14.52 14.95a15.08 15.08 0 0 0-4.28 10.52v13.79a1.84 1.84 0 0 0 3.15 1.28zm-8.48 28.4L724.3 62.13A15.08 15.08 0 0 1 720 51.6V37.81a1.84 1.84 0 0 1 3.16-1.28l14.57 14.95A15.08 15.08 0 0 1 742 62v13.79a1.84 1.84 0 0 1-3.13 1.28zm8.48 0l14.57-14.95a15.08 15.08 0 0 0 4.28-10.52V37.81a1.84 1.84 0 0 0-3.2-1.28l-14.52 14.95A15.08 15.08 0 0 0 744.2 62v13.79a1.84 1.84 0 0 0 3.15 1.28zm42.86-56.8L775.64 5.33a15.08 15.08 0 0 1-4.28-10.53V-19a1.84 1.84 0 0 1 3.16-1.28l14.56 14.95a15.08 15.08 0 0 1 4.28 10.53V19a1.84 1.84 0 0 1-3.15 1.27zm8.48 0l14.57-14.94a15.08 15.08 0 0 0 4.28-10.53V-19a1.84 1.84 0 0 0-3.16-1.28L799.82-5.33a15.08 15.08 0 0 0-4.28 10.53V19a1.84 1.84 0 0 0 3.15 1.27zm-8.48 28.4l-14.57-14.94a15.08 15.08 0 0 1-4.28-10.53V9.41a1.84 1.84 0 0 1 3.16-1.28l14.57 14.95a15.08 15.08 0 0 1 4.28 10.53v13.78a1.84 1.84 0 0 1-3.16 1.28zm8.48 0l14.57-14.95a15.08 15.08 0 0 0 4.28-10.53V9.41a1.84 1.84 0 0 0-3.16-1.28l-14.56 14.95a15.08 15.08 0 0 0-4.28 10.53v13.78a1.84 1.84 0 0 0 3.15 1.28zm-8.48 28.4l-14.57-14.94a15.08 15.08 0 0 1-4.28-10.53V37.81a1.84 1.84 0 0 1 3.16-1.28l14.57 14.95A15.08 15.08 0 0 1 793.36 62v13.79a1.84 1.84 0 0 1-3.15 1.28zm8.48 0l14.57-14.95a15.08 15.08 0 0 0 4.28-10.53V37.81a1.84 1.84 0 0 0-3.16-1.28l-14.56 14.95A15.08 15.08 0 0 0 795.54 62v13.79a1.84 1.84 0 0 0 3.15 1.28zm42.86-56.8L827 5.33a15.08 15.08 0 0 1-4.3-10.53V-19a1.84 1.84 0 0 1 3.16-1.28l14.56 14.95A15.08 15.08 0 0 1 844.7 5.2V19a1.84 1.84 0 0 1-3.15 1.27zm8.45 0l14.6-14.94a15.08 15.08 0 0 0 4.28-10.53V-19a1.84 1.84 0 0 0-3.16-1.28L851.16-5.33a15.08 15.08 0 0 0-4.29 10.53V19a1.84 1.84 0 0 0 3.13 1.27zm-8.45 28.4L827 33.73a15.08 15.08 0 0 1-4.3-10.53V9.41a1.84 1.84 0 0 1 3.16-1.28l14.57 14.95a15.08 15.08 0 0 1 4.27 10.52v13.79a1.84 1.84 0 0 1-3.15 1.28zm8.45 0l14.6-14.94a15.08 15.08 0 0 0 4.28-10.53V9.41a1.84 1.84 0 0 0-3.16-1.28l-14.56 14.95a15.08 15.08 0 0 0-4.28 10.53v13.78a1.84 1.84 0 0 0 3.12 1.28zm-8.45 28.4L827 62.13a15.08 15.08 0 0 1-4.3-10.53V37.81a1.84 1.84 0 0 1 3.16-1.28l14.57 14.95A15.08 15.08 0 0 1 844.7 62v13.79a1.84 1.84 0 0 1-3.15 1.28zm8.45 0l14.6-14.94a15.08 15.08 0 0 0 4.28-10.53V37.81a1.84 1.84 0 0 0-3.16-1.28l-14.56 14.95A15.08 15.08 0 0 0 846.87 62v13.79a1.84 1.84 0 0 0 3.13 1.28zm42.88-56.8L878.32 5.33A15.08 15.08 0 0 1 874-5.2V-19a1.84 1.84 0 0 1 3.16-1.28l14.6 14.95A15.08 15.08 0 0 1 896 5.2V19a1.84 1.84 0 0 1-3.12 1.27zm8.49 0l14.57-14.94a15.08 15.08 0 0 0 4.28-10.53V-19a1.84 1.84 0 0 0-3.16-1.28L902.49-5.33a15.08 15.08 0 0 0-4.28 10.53V19a1.84 1.84 0 0 0 3.16 1.27zm-8.49 28.4l-14.56-14.94A15.08 15.08 0 0 1 874 23.2V9.41a1.84 1.84 0 0 1 3.16-1.28l14.57 14.95A15.08 15.08 0 0 1 896 33.6v13.79a1.84 1.84 0 0 1-3.12 1.28zm8.49 0l14.57-14.95a15.08 15.08 0 0 0 4.28-10.53V9.41a1.84 1.84 0 0 0-3.16-1.28l-14.57 14.95a15.08 15.08 0 0 0-4.28 10.53v13.78a1.84 1.84 0 0 0 3.16 1.28zm-8.49 28.4l-14.56-14.94A15.08 15.08 0 0 1 874 51.6V37.81a1.84 1.84 0 0 1 3.16-1.28l14.57 14.95A15.08 15.08 0 0 1 896 62v13.79a1.84 1.84 0 0 1-3.12 1.28zm8.49 0l14.57-14.95a15.08 15.08 0 0 0 4.28-10.53V37.81a1.84 1.84 0 0 0-3.16-1.28l-14.57 14.95A15.08 15.08 0 0 0 898.21 62v13.79a1.84 1.84 0 0 0 3.16 1.28zm42.85-56.8L929.65 5.33a15.08 15.08 0 0 1-4.28-10.53V-19a1.84 1.84 0 0 1 3.16-1.28L943.1-5.33a15.08 15.08 0 0 1 4.28 10.53V19a1.84 1.84 0 0 1-3.16 1.27zm8.49 0l14.57-14.94a15.08 15.08 0 0 0 4.28-10.53V-19a1.84 1.84 0 0 0-3.16-1.28L953.83-5.33a15.08 15.08 0 0 0-4.28 10.53V19a1.84 1.84 0 0 0 3.16 1.27zm-8.49 28.4l-14.57-14.94a15.08 15.08 0 0 1-4.28-10.53V9.41a1.84 1.84 0 0 1 3.16-1.28l14.57 14.95a15.08 15.08 0 0 1 4.28 10.53v13.78a1.84 1.84 0 0 1-3.16 1.28zm8.49 0l14.57-14.95a15.08 15.08 0 0 0 4.28-10.53V9.41a1.84 1.84 0 0 0-3.16-1.28l-14.57 14.95a15.08 15.08 0 0 0-4.28 10.53v13.78a1.84 1.84 0 0 0 3.16 1.28zm-8.49 28.4l-14.57-14.94a15.08 15.08 0 0 1-4.28-10.53V37.81a1.84 1.84 0 0 1 3.16-1.28l14.57 14.95A15.08 15.08 0 0 1 947.38 62v13.79a1.84 1.84 0 0 1-3.16 1.28zm8.49 0l14.57-14.95a15.08 15.08 0 0 0 4.28-10.53V37.81a1.84 1.84 0 0 0-3.16-1.28l-14.57 14.95A15.08 15.08 0 0 0 949.55 62v13.79a1.84 1.84 0 0 0 3.16 1.28zm42.85-56.8L981 5.33a15.08 15.08 0 0 1-4.29-10.53V-19a1.84 1.84 0 0 1 3.16-1.28l14.57 14.95a15.08 15.08 0 0 1 4.28 10.53V19a1.84 1.84 0 0 1-3.16 1.27zm8.44 0l14.57-14.95a15.08 15.08 0 0 0 4.33-10.52V-19a1.84 1.84 0 0 0-3.16-1.28l-14.57 14.95a15.08 15.08 0 0 0-4.28 10.53V19a1.84 1.84 0 0 0 3.11 1.27zm-8.44 28.4L981 33.73a15.08 15.08 0 0 1-4.28-10.53V9.41a1.84 1.84 0 0 1 3.16-1.28l14.57 14.95a15.08 15.08 0 0 1 4.28 10.53v13.78a1.84 1.84 0 0 1-3.17 1.28zm8.44 0l14.57-14.95a15.08 15.08 0 0 0 4.28-10.53V9.41a1.84 1.84 0 0 0-3.16-1.28l-14.57 14.95a15.08 15.08 0 0 0-4.28 10.53v13.78a1.84 1.84 0 0 0 3.16 1.28zm-8.44 28.4L981 62.13a15.08 15.08 0 0 1-4.28-10.53V37.81a1.84 1.84 0 0 1 3.16-1.28l14.57 14.95A15.08 15.08 0 0 1 998.72 62v13.79a1.84 1.84 0 0 1-3.16 1.28zm8.44 0l14.57-14.95a15.08 15.08 0 0 0 4.28-10.53V37.81a1.84 1.84 0 0 0-3.16-1.28l-14.57 14.95a15.08 15.08 0 0 0-4.23 10.52v13.79a1.84 1.84 0 0 0 3.11 1.28zm42.9-56.8l-14.57-14.94a15.08 15.08 0 0 1-4.28-10.53V-19a1.84 1.84 0 0 1 3.16-1.28l14.57 14.95a15.08 15.08 0 0 1 4.28 10.53V19a1.84 1.84 0 0 1-3.16 1.27zm8.48 0L1070 5.33a15.08 15.08 0 0 0 4.28-10.53V-19a1.84 1.84 0 0 0-3.16-1.28l-14.61 14.95a15.08 15.08 0 0 0-4.28 10.53V19a1.84 1.84 0 0 0 3.15 1.27zm-8.48 28.4l-14.57-14.95a15.08 15.08 0 0 1-4.28-10.53V9.41a1.84 1.84 0 0 1 3.16-1.28l14.57 14.95a15.08 15.08 0 0 1 4.28 10.53v13.78a1.84 1.84 0 0 1-3.16 1.28zm8.48 0L1070 33.73a15.08 15.08 0 0 0 4.28-10.53V9.41a1.84 1.84 0 0 0-3.16-1.28l-14.57 14.95a15.08 15.08 0 0 0-4.28 10.53v13.78a1.84 1.84 0 0 0 3.11 1.28zm-8.48 28.4l-14.57-14.95a15.08 15.08 0 0 1-4.28-10.53V37.81a1.84 1.84 0 0 1 3.16-1.28l14.57 14.95a15.08 15.08 0 0 1 4.28 10.52v13.79a1.84 1.84 0 0 1-3.16 1.28zm8.48 0L1070 62.13a15.08 15.08 0 0 0 4.28-10.53V37.81a1.84 1.84 0 0 0-3.16-1.28l-14.57 14.95a15.08 15.08 0 0 0-4.32 10.52v13.79a1.84 1.84 0 0 0 3.15 1.28zm42.86-56.8l-14.57-14.94a15.08 15.08 0 0 1-4.28-10.53V-19a1.84 1.84 0 0 1 3.16-1.28l14.57 14.95a15.08 15.08 0 0 1 4.28 10.53V19a1.84 1.84 0 0 1-3.16 1.27zm8.48 0l14.57-14.95a15.08 15.08 0 0 0 4.28-10.53V-19a1.84 1.84 0 0 0-3.16-1.28l-14.56 14.95a15.08 15.08 0 0 0-4.28 10.53V19a1.84 1.84 0 0 0 3.15 1.27zm-8.48 28.4l-14.57-14.95a15.08 15.08 0 0 1-4.28-10.53V9.41a1.84 1.84 0 0 1 3.16-1.28l14.57 14.95a15.08 15.08 0 0 1 4.28 10.53v13.78a1.84 1.84 0 0 1-3.16 1.28zm8.48 0l14.57-14.95a15.08 15.08 0 0 0 4.28-10.53V9.41a1.84 1.84 0 0 0-3.16-1.28l-14.57 14.95a15.08 15.08 0 0 0-4.28 10.53v13.78a1.84 1.84 0 0 0 3.16 1.28zm-8.48 28.4l-14.57-14.95a15.08 15.08 0 0 1-4.28-10.53V37.81a1.84 1.84 0 0 1 3.16-1.28l14.57 14.95a15.08 15.08 0 0 1 4.27 10.52v13.79a1.84 1.84 0 0 1-3.15 1.28zm8.48 0l14.57-14.95a15.08 15.08 0 0 0 4.28-10.53V37.81a1.84 1.84 0 0 0-3.16-1.28l-14.57 14.95a15.08 15.08 0 0 0-4.27 10.52v13.79a1.84 1.84 0 0 0 3.15 1.28zM379.5 20.27L364.93 5.33a15.08 15.08 0 0 1-4.28-10.53V-19a1.84 1.84 0 0 1 3.16-1.28l14.56 14.95a15.08 15.08 0 0 1 4.28 10.53V19a1.84 1.84 0 0 1-3.15 1.27zm8.5 0l14.55-14.94a15.08 15.08 0 0 0 4.28-10.53V-19a1.84 1.84 0 0 0-3.16-1.28L389.11-5.33a15.08 15.08 0 0 0-4.28 10.53V19a1.84 1.84 0 0 0 3.17 1.27zm-8.5 28.4l-14.57-14.94a15.08 15.08 0 0 1-4.28-10.53V9.41a1.84 1.84 0 0 1 3.16-1.28l14.57 14.95a15.08 15.08 0 0 1 4.28 10.53v13.78a1.84 1.84 0 0 1-3.16 1.28zm8.5 0l14.57-14.95a15.08 15.08 0 0 0 4.28-10.53V9.41a1.84 1.84 0 0 0-3.16-1.28l-14.58 14.95a15.08 15.08 0 0 0-4.28 10.53v13.78a1.84 1.84 0 0 0 3.17 1.28zm-8.5 28.4l-14.57-14.94a15.08 15.08 0 0 1-4.28-10.53V37.81a1.84 1.84 0 0 1 3.16-1.28l14.57 14.95A15.08 15.08 0 0 1 382.65 62v13.79a1.84 1.84 0 0 1-3.15 1.28zm8.5 0l14.57-14.95a15.08 15.08 0 0 0 4.28-10.53V37.81a1.84 1.84 0 0 0-3.16-1.28l-14.58 14.95A15.08 15.08 0 0 0 384.83 62v13.79a1.84 1.84 0 0 0 3.17 1.28zm42.84-56.8L416.27 5.33A15.08 15.08 0 0 1 412-5.2V-19a1.84 1.84 0 0 1 3.16-1.28l14.55 14.95A15.08 15.08 0 0 1 434 5.2V19a1.84 1.84 0 0 1-3.16 1.27zm8.48 0l14.57-14.94a15.08 15.08 0 0 0 4.28-10.53V-19a1.84 1.84 0 0 0-3.17-1.27L440.45-5.33a15.08 15.08 0 0 0-4.28 10.53V19a1.84 1.84 0 0 0 3.15 1.27zm-8.48 28.4l-14.57-14.94A15.08 15.08 0 0 1 412 23.2V9.41a1.84 1.84 0 0 1 3.16-1.28l14.57 14.95A15.08 15.08 0 0 1 434 33.6v13.79a1.84 1.84 0 0 1-3.16 1.28zm8.48 0l14.57-14.95a15.08 15.08 0 0 0 4.28-10.53V9.41A1.84 1.84 0 0 0 455 8.13l-14.55 14.95a15.08 15.08 0 0 0-4.28 10.53v13.78a1.84 1.84 0 0 0 3.15 1.28zm-8.48 28.4l-14.57-14.94A15.08 15.08 0 0 1 412 51.6V37.81a1.84 1.84 0 0 1 3.16-1.28l14.57 14.95A15.08 15.08 0 0 1 434 62v13.79a1.84 1.84 0 0 1-3.16 1.28zm8.48 0l14.57-14.95a15.08 15.08 0 0 0 4.28-10.53V37.81a1.84 1.84 0 0 0-3.17-1.28l-14.55 14.95A15.08 15.08 0 0 0 436.17 62v13.79a1.84 1.84 0 0 0 3.15 1.28zm42.86-56.8L467.61 5.33a15.08 15.08 0 0 1-4.28-10.53V-19a1.84 1.84 0 0 1 3.16-1.28L481-5.33a15.08 15.08 0 0 1 4.33 10.53V19a1.84 1.84 0 0 1-3.15 1.27zm8.48 0l14.57-14.94a15.08 15.08 0 0 0 4.28-10.53V-19a1.84 1.84 0 0 0-3.16-1.28L491.79-5.33A15.08 15.08 0 0 0 487.5 5.2V19a1.84 1.84 0 0 0 3.16 1.27zm-8.48 28.4l-14.57-14.94a15.08 15.08 0 0 1-4.28-10.53V9.41a1.84 1.84 0 0 1 3.16-1.28L481 23.08a15.08 15.08 0 0 1 4.28 10.53v13.78a1.84 1.84 0 0 1-3.1 1.28zm8.48 0l14.57-14.95a15.08 15.08 0 0 0 4.28-10.53V9.41a1.84 1.84 0 0 0-3.16-1.28l-14.56 14.95a15.08 15.08 0 0 0-4.29 10.52v13.79a1.84 1.84 0 0 0 3.16 1.28zm-8.48 28.4l-14.57-14.94a15.08 15.08 0 0 1-4.28-10.53V37.81a1.84 1.84 0 0 1 3.16-1.28L481 51.48A15.08 15.08 0 0 1 485.33 62v13.79a1.84 1.84 0 0 1-3.15 1.28zm8.48 0l14.57-14.95a15.08 15.08 0 0 0 4.28-10.53V37.81a1.84 1.84 0 0 0-3.16-1.28l-14.56 14.95A15.08 15.08 0 0 0 487.5 62v13.79a1.84 1.84 0 0 0 3.16 1.28zm42.85-56.8L518.95 5.33a15.08 15.08 0 0 1-4.29-10.53V-19a1.84 1.84 0 0 1 3.16-1.28l14.57 14.95a15.08 15.08 0 0 1 4.28 10.53V19a1.84 1.84 0 0 1-3.16 1.27zm8.49 0l14.57-14.94a15.08 15.08 0 0 0 4.28-10.53V-19a1.84 1.84 0 0 0-3.16-1.28L543.12-5.33a15.08 15.08 0 0 0-4.28 10.53V19a1.84 1.84 0 0 0 3.16 1.27zm-8.49 28.4l-14.56-14.94a15.08 15.08 0 0 1-4.28-10.53V9.41a1.84 1.84 0 0 1 3.16-1.28l14.57 14.95a15.08 15.08 0 0 1 4.28 10.53v13.78a1.84 1.84 0 0 1-3.17 1.28zm8.49 0l14.57-14.95a15.08 15.08 0 0 0 4.28-10.53V9.41a1.84 1.84 0 0 0-3.16-1.28l-14.57 14.95a15.08 15.08 0 0 0-4.28 10.53v13.78a1.84 1.84 0 0 0 3.16 1.28zm-8.49 28.4l-14.56-14.94a15.08 15.08 0 0 1-4.28-10.53V37.81a1.84 1.84 0 0 1 3.16-1.28l14.57 14.95A15.08 15.08 0 0 1 536.67 62v13.79a1.84 1.84 0 0 1-3.16 1.28zm8.49 0l14.57-14.95a15.08 15.08 0 0 0 4.28-10.53V37.81a1.84 1.84 0 0 0-3.16-1.28l-14.57 14.95A15.08 15.08 0 0 0 538.84 62v13.79a1.84 1.84 0 0 0 3.16 1.28zm42.85-56.8L570.28 5.33A15.08 15.08 0 0 1 566-5.2V-19a1.84 1.84 0 0 1 3.16-1.28l14.57 14.95A15.08 15.08 0 0 1 588 5.2V19a1.84 1.84 0 0 1-3.15 1.27zm8.49 0l14.57-14.94a15.08 15.08 0 0 0 4.28-10.53V-19a1.84 1.84 0 0 0-3.19-1.27L594.46-5.33a15.08 15.08 0 0 0-4.28 10.53V19a1.84 1.84 0 0 0 3.16 1.27zm-8.49 28.4l-14.57-14.94A15.08 15.08 0 0 1 566 23.2V9.41a1.84 1.84 0 0 1 3.16-1.28l14.57 14.95A15.08 15.08 0 0 1 588 33.6v13.79a1.84 1.84 0 0 1-3.15 1.28zm8.49 0l14.57-14.95a15.08 15.08 0 0 0 4.28-10.53V9.41A1.84 1.84 0 0 0 609 8.13l-14.54 14.95a15.08 15.08 0 0 0-4.28 10.53v13.78a1.84 1.84 0 0 0 3.16 1.28zm-8.49 28.4l-14.57-14.94A15.08 15.08 0 0 1 566 51.6V37.81a1.84 1.84 0 0 1 3.16-1.28l14.57 14.95A15.08 15.08 0 0 1 588 62v13.79a1.84 1.84 0 0 1-3.15 1.28zm8.49 0l14.57-14.95a15.08 15.08 0 0 0 4.28-10.53V37.81a1.84 1.84 0 0 0-3.19-1.28l-14.54 14.95A15.08 15.08 0 0 0 590.18 62v13.79a1.84 1.84 0 0 0 3.16 1.28zm42.85-56.8L621.62 5.33a15.08 15.08 0 0 1-4.28-10.53V-19a1.84 1.84 0 0 1 3.16-1.28l14.57 14.95a15.08 15.08 0 0 1 4.28 10.53V19a1.84 1.84 0 0 1-3.16 1.27zm8.49 0l14.56-14.94a15.08 15.08 0 0 0 4.29-10.53V-19a1.84 1.84 0 0 0-3.16-1.28L645.8-5.33a15.08 15.08 0 0 0-4.28 10.53V19a1.84 1.84 0 0 0 3.16 1.27zm-8.49 28.4l-14.57-14.94a15.08 15.08 0 0 1-4.28-10.53V9.41a1.84 1.84 0 0 1 3.16-1.28l14.57 14.95a15.08 15.08 0 0 1 4.28 10.53v13.78a1.84 1.84 0 0 1-3.16 1.28zm8.49 0l14.57-14.95a15.08 15.08 0 0 0 4.28-10.53V9.41a1.84 1.84 0 0 0-3.16-1.28L645.8 23.08a15.08 15.08 0 0 0-4.28 10.53v13.78a1.84 1.84 0 0 0 3.16 1.28zm-8.49 28.4l-14.57-14.94a15.08 15.08 0 0 1-4.28-10.53V37.81a1.84 1.84 0 0 1 3.16-1.28l14.57 14.95A15.08 15.08 0 0 1 639.35 62v13.79a1.84 1.84 0 0 1-3.16 1.28zm8.49 0l14.57-14.95a15.08 15.08 0 0 0 4.28-10.53V37.81a1.84 1.84 0 0 0-3.16-1.28L645.8 51.48A15.08 15.08 0 0 0 641.52 62v13.79a1.84 1.84 0 0 0 3.16 1.28zm42.85-56.8L673 5.33a15.08 15.08 0 0 1-4.32-10.53V-19a1.84 1.84 0 0 1 3.16-1.28L686.4-5.33a15.08 15.08 0 0 1 4.29 10.53V19a1.84 1.84 0 0 1-3.16 1.27zm8.47 0l14.58-14.94a15.08 15.08 0 0 0 4.28-10.53V-19a1.84 1.84 0 0 0-3.16-1.28L697.14-5.33a15.08 15.08 0 0 0-4.28 10.53V19a1.84 1.84 0 0 0 3.14 1.27zm-8.47 28.4L673 33.73a15.08 15.08 0 0 1-4.28-10.53V9.41a1.84 1.84 0 0 1 3.16-1.28l14.52 14.95a15.08 15.08 0 0 1 4.28 10.53v13.78a1.84 1.84 0 0 1-3.15 1.28zm8.47 0l14.57-14.95a15.08 15.08 0 0 0 4.28-10.53V9.41a1.84 1.84 0 0 0-3.16-1.28l-14.55 14.95a15.08 15.08 0 0 0-4.28 10.53v13.78a1.84 1.84 0 0 0 3.14 1.28zm-8.47 28.4L673 62.13a15.08 15.08 0 0 1-4.28-10.53V37.81a1.84 1.84 0 0 1 3.16-1.28l14.52 14.95A15.08 15.08 0 0 1 690.69 62v13.79a1.84 1.84 0 0 1-3.16 1.28zm8.47 0l14.57-14.95a15.08 15.08 0 0 0 4.28-10.53V37.81a1.84 1.84 0 0 0-3.16-1.28l-14.55 14.95A15.08 15.08 0 0 0 692.86 62v13.79a1.84 1.84 0 0 0 3.14 1.28zM20.13 20.27L5.56 5.33A15.08 15.08 0 0 1 1.28-5.2V-19a1.84 1.84 0 0 1 3.16-1.28L19-5.33A15.08 15.08 0 0 1 23.28 5.2V19a1.84 1.84 0 0 1-3.15 1.27zm8.48 0L43.18 5.33A15.08 15.08 0 0 0 47.46-5.2V-19a1.84 1.84 0 0 0-3.16-1.28L29.74-5.33A15.08 15.08 0 0 0 25.46 5.2V19a1.84 1.84 0 0 0 3.15 1.27zm-8.48 28.4L5.56 33.73A15.08 15.08 0 0 1 1.28 23.2V9.41a1.84 1.84 0 0 1 3.15-1.28L19 23.08a15.08 15.08 0 0 1 4.28 10.52v13.79a1.84 1.84 0 0 1-3.15 1.28zm8.48 0l14.57-14.94a15.08 15.08 0 0 0 4.28-10.53V9.41a1.84 1.84 0 0 0-3.16-1.28L29.74 23.08a15.08 15.08 0 0 0-4.28 10.52v13.79a1.84 1.84 0 0 0 3.15 1.28zm-8.48 28.4L5.56 62.13A15.08 15.08 0 0 1 1.28 51.6V37.81a1.84 1.84 0 0 1 3.16-1.28L19 51.48A15.08 15.08 0 0 1 23.28 62v13.79a1.84 1.84 0 0 1-3.15 1.28zm8.48 0l14.57-14.94a15.08 15.08 0 0 0 4.28-10.53V37.81a1.84 1.84 0 0 0-3.16-1.28L29.74 51.48A15.08 15.08 0 0 0 25.46 62v13.79a1.84 1.84 0 0 0 3.15 1.28zm42.86-56.8L56.9 5.33A15.08 15.08 0 0 1 52.62-5.2V-19a1.84 1.84 0 0 1 3.16-1.28L70.34-5.33A15.08 15.08 0 0 1 74.62 5.2V19a1.84 1.84 0 0 1-3.15 1.27zm8.53 0L94.52 5.33A15.08 15.08 0 0 0 98.8-5.2V-19a1.84 1.84 0 0 0-3.16-1.28L81.08-5.33A15.08 15.08 0 0 0 76.8 5.2V19a1.84 1.84 0 0 0 3.2 1.27zm-8.53 28.4L56.9 33.73a15.08 15.08 0 0 1-4.28-10.53V9.41a1.84 1.84 0 0 1 3.16-1.28l14.56 14.95a15.08 15.08 0 0 1 4.28 10.52v13.79a1.84 1.84 0 0 1-3.15 1.28zm8.53 0l14.52-14.94A15.08 15.08 0 0 0 98.8 23.2V9.41a1.84 1.84 0 0 0-3.16-1.28L81.08 23.08A15.08 15.08 0 0 0 76.8 33.6v13.79a1.84 1.84 0 0 0 3.2 1.28zm-8.53 28.4L56.9 62.13a15.08 15.08 0 0 1-4.28-10.53V37.81a1.84 1.84 0 0 1 3.16-1.28l14.56 14.95A15.08 15.08 0 0 1 74.62 62v13.79a1.84 1.84 0 0 1-3.15 1.28zm8.53 0l14.52-14.94A15.08 15.08 0 0 0 98.8 51.6V37.81a1.84 1.84 0 0 0-3.16-1.28L81.08 51.48A15.08 15.08 0 0 0 76.8 62v13.79a1.84 1.84 0 0 0 3.2 1.28zm42.81-56.8L108.24 5.33A15.08 15.08 0 0 1 104-5.2V-19a1.84 1.84 0 0 1 3.16-1.28l14.52 14.95A15.08 15.08 0 0 1 126 5.2V19a1.84 1.84 0 0 1-3.19 1.27zm8.48 0l14.57-14.94a15.08 15.08 0 0 0 4.28-10.53V-19a1.84 1.84 0 0 0-3.14-1.27L132.42-5.33a15.08 15.08 0 0 0-4.29 10.53V19a1.84 1.84 0 0 0 3.16 1.27zm-8.48 28.4l-14.57-14.94A15.08 15.08 0 0 1 104 23.2V9.41a1.84 1.84 0 0 1 3.16-1.28l14.57 14.95A15.08 15.08 0 0 1 126 33.6v13.79a1.84 1.84 0 0 1-3.19 1.28zm8.48 0l14.57-14.95a15.08 15.08 0 0 0 4.28-10.53V9.41A1.84 1.84 0 0 0 147 8.13l-14.58 14.95a15.08 15.08 0 0 0-4.28 10.53v13.78a1.84 1.84 0 0 0 3.15 1.28zm-8.48 28.4l-14.57-14.94A15.08 15.08 0 0 1 104 51.6V37.81a1.84 1.84 0 0 1 3.16-1.28l14.57 14.95A15.08 15.08 0 0 1 126 62v13.79a1.84 1.84 0 0 1-3.19 1.28zm8.48 0l14.57-14.95a15.08 15.08 0 0 0 4.28-10.53V37.81a1.84 1.84 0 0 0-3.14-1.28l-14.58 14.95A15.08 15.08 0 0 0 128.13 62v13.79a1.84 1.84 0 0 0 3.16 1.28zm42.85-56.8L159.57 5.33a15.08 15.08 0 0 1-4.28-10.53V-19a1.84 1.84 0 0 1 3.16-1.28L173-5.33a15.08 15.08 0 0 1 4.3 10.53V19a1.84 1.84 0 0 1-3.16 1.27zm8.49 0L197.2 5.33a15.08 15.08 0 0 0 4.28-10.53V-19a1.84 1.84 0 0 0-3.16-1.28L183.75-5.33a15.08 15.08 0 0 0-4.28 10.53V19a1.84 1.84 0 0 0 3.16 1.27zm-8.49 28.4l-14.57-14.94a15.08 15.08 0 0 1-4.28-10.53V9.41a1.84 1.84 0 0 1 3.16-1.28L173 23.08a15.08 15.08 0 0 1 4.3 10.52v13.79a1.84 1.84 0 0 1-3.16 1.28zm8.49 0l14.57-14.94a15.08 15.08 0 0 0 4.28-10.53V9.41a1.84 1.84 0 0 0-3.16-1.28l-14.57 14.95a15.08 15.08 0 0 0-4.28 10.53v13.78a1.84 1.84 0 0 0 3.16 1.28zm-8.49 28.4l-14.57-14.94a15.08 15.08 0 0 1-4.28-10.53V37.81a1.84 1.84 0 0 1 3.16-1.28L173 51.48A15.08 15.08 0 0 1 177.3 62v13.79a1.84 1.84 0 0 1-3.16 1.28zm8.49 0l14.57-14.94a15.08 15.08 0 0 0 4.28-10.53V37.81a1.84 1.84 0 0 0-3.16-1.28l-14.57 14.95A15.08 15.08 0 0 0 179.47 62v13.79a1.84 1.84 0 0 0 3.16 1.28zm42.85-56.8L210.91 5.33a15.08 15.08 0 0 1-4.28-10.53V-19a1.84 1.84 0 0 1 3.16-1.28l14.57 14.95a15.08 15.08 0 0 1 4.28 10.53V19a1.84 1.84 0 0 1-3.16 1.27zm8.52 0l14.54-14.94a15.08 15.08 0 0 0 4.28-10.53V-19a1.84 1.84 0 0 0-3.16-1.28L235.09-5.33a15.08 15.08 0 0 0-4.28 10.53V19a1.84 1.84 0 0 0 3.19 1.27zm-8.52 28.4l-14.57-14.94a15.08 15.08 0 0 1-4.28-10.53V9.41a1.84 1.84 0 0 1 3.16-1.28l14.57 14.95a15.08 15.08 0 0 1 4.28 10.53v13.78a1.84 1.84 0 0 1-3.16 1.28zm8.52 0l14.57-14.95a15.08 15.08 0 0 0 4.28-10.53V9.41a1.84 1.84 0 0 0-3.16-1.28l-14.6 14.95a15.08 15.08 0 0 0-4.28 10.53v13.78a1.84 1.84 0 0 0 3.19 1.28zm-8.52 28.4l-14.57-14.94a15.08 15.08 0 0 1-4.28-10.53V37.81a1.84 1.84 0 0 1 3.16-1.28l14.57 14.95A15.08 15.08 0 0 1 228.64 62v13.79a1.84 1.84 0 0 1-3.16 1.28zm8.52 0l14.57-14.95a15.08 15.08 0 0 0 4.28-10.53V37.81a1.84 1.84 0 0 0-3.16-1.28l-14.6 14.95A15.08 15.08 0 0 0 230.81 62v13.79a1.84 1.84 0 0 0 3.19 1.28zm42.82-56.8L262.25 5.33A15.08 15.08 0 0 1 258-5.2V-19a1.84 1.84 0 0 1 3.16-1.28L275.7-5.33A15.08 15.08 0 0 1 280 5.2V19a1.84 1.84 0 0 1-3.18 1.27zm8.49 0l14.56-14.94a15.08 15.08 0 0 0 4.29-10.53V-19a1.84 1.84 0 0 0-3.16-1.27L286.43-5.33a15.08 15.08 0 0 0-4.28 10.53V19a1.84 1.84 0 0 0 3.16 1.27zm-8.49 28.4l-14.57-14.94A15.08 15.08 0 0 1 258 23.2V9.41a1.84 1.84 0 0 1 3.16-1.28l14.54 14.95A15.08 15.08 0 0 1 280 33.6v13.79a1.84 1.84 0 0 1-3.18 1.28zm8.49 0l14.57-14.95a15.08 15.08 0 0 0 4.28-10.53V9.41A1.84 1.84 0 0 0 301 8.13l-14.57 14.95a15.08 15.08 0 0 0-4.28 10.53v13.78a1.84 1.84 0 0 0 3.16 1.28zm-8.49 28.4l-14.57-14.94A15.08 15.08 0 0 1 258 51.6V37.81a1.84 1.84 0 0 1 3.16-1.28l14.54 14.95A15.08 15.08 0 0 1 280 62v13.79a1.84 1.84 0 0 1-3.18 1.28zm8.49 0l14.57-14.95a15.08 15.08 0 0 0 4.28-10.53V37.81a1.84 1.84 0 0 0-3.16-1.28l-14.57 14.95A15.08 15.08 0 0 0 282.15 62v13.79a1.84 1.84 0 0 0 3.16 1.28zm42.85-56.8L313.59 5.33a15.08 15.08 0 0 1-4.28-10.53V-19a1.84 1.84 0 0 1 3.16-1.28L327-5.33a15.08 15.08 0 0 1 4.32 10.53V19a1.84 1.84 0 0 1-3.16 1.27zm8.48 0l14.57-14.94a15.08 15.08 0 0 0 4.28-10.53V-19a1.84 1.84 0 0 0-3.16-1.28L337.77-5.33a15.08 15.08 0 0 0-4.28 10.53V19a1.84 1.84 0 0 0 3.15 1.27zm-8.48 28.4l-14.57-14.94a15.08 15.08 0 0 1-4.28-10.53V9.41a1.84 1.84 0 0 1 3.16-1.28L327 23.08a15.08 15.08 0 0 1 4.28 10.53v13.78a1.84 1.84 0 0 1-3.12 1.28zm8.48 0l14.57-14.95a15.08 15.08 0 0 0 4.28-10.53V9.41a1.84 1.84 0 0 0-3.16-1.28l-14.56 14.95a15.08 15.08 0 0 0-4.28 10.53v13.78a1.84 1.84 0 0 0 3.15 1.28zm-8.48 28.4l-14.57-14.94a15.08 15.08 0 0 1-4.28-10.53V37.81a1.84 1.84 0 0 1 3.16-1.28L327 51.48A15.08 15.08 0 0 1 331.32 62v13.79a1.84 1.84 0 0 1-3.16 1.28zm8.48 0l14.57-14.95a15.08 15.08 0 0 0 4.28-10.53V37.81a1.84 1.84 0 0 0-3.16-1.28l-14.56 14.95A15.08 15.08 0 0 0 333.49 62v13.79a1.84 1.84 0 0 0 3.15 1.28z"/></g></svg>